<svg width="141" height="162" viewBox="0 0 141 162" fill="none" xmlns="http://www.w3.org/2000/svg">
<path d="M65.5425 3.02963L69.0408 1.00987L69.2908 1.44289L70.79 0.57735L72.2891 1.44288L72.5391 1.00987L76.0375 3.02962L75.7875 3.46263L79.2858 5.48238L79.5358 5.04937L83.0341 7.06912L82.7841 7.50213L86.2824 9.52188L86.5324 9.08887L90.0307 11.1086L89.7807 11.5416L93.279 13.5614L93.529 13.1284L97.0273 15.1481L96.7773 15.5811L100.276 17.6009L100.526 17.1679L104.024 19.1876L103.774 19.6206L107.272 21.6404L107.522 21.2074L111.021 23.2271L110.771 23.6601L114.269 25.6799L114.519 25.2469L118.017 27.2666L117.767 27.6996L121.265 29.7194L121.515 29.2864L125.014 31.3061L124.764 31.7391L128.262 33.7589L128.512 33.3259L132.01 35.3456L131.76 35.7786L135.259 37.7984L135.509 37.3654L139.007 39.3851L138.757 39.8181L140.256 40.6837V42.4147H140.756V46.4542H140.256V50.4937H140.756V54.5332H140.256V58.5727H140.756V62.6122H140.256V66.6517H140.756V70.6912H140.256V74.7307H140.756V78.7702H140.256V82.8097H140.756V86.8493H140.256V90.8887H140.756V94.9283H140.256V98.9678H140.756V103.007H140.256V107.047H140.756V111.086H140.256V115.126H140.756V119.165H140.256V120.896L138.757 121.762L139.007 122.195L135.509 124.215L135.259 123.782L131.76 125.801L132.01 126.234L128.512 128.254L128.262 127.821L124.764 129.841L125.014 130.274L121.516 132.294L121.266 131.861L117.767 133.88L118.017 134.313L114.519 136.333L114.269 135.9L110.771 137.92L111.021 138.353L107.522 140.373L107.272 139.94L103.774 141.959L104.024 142.392L100.526 144.412L100.276 143.979L96.7773 145.999L97.0273 146.432L93.529 148.452L93.279 148.019L89.7807 150.038L90.0307 150.471L86.5324 152.491L86.2824 152.058L82.7841 154.078L83.0341 154.511L79.5358 156.531L79.2858 156.098L75.7875 158.117L76.0375 158.55L72.5392 160.57L72.2892 160.137L70.79 161.003L69.2909 160.137L69.0409 160.57L65.5425 158.55L65.7925 158.117L62.2942 156.098L62.0442 156.531L58.5459 154.511L58.7959 154.078L55.2976 152.058L55.0476 152.491L51.5493 150.471L51.7993 150.038L48.301 148.019L48.051 148.452L44.5527 146.432L44.8027 145.999L41.3044 143.979L41.0544 144.412L37.5561 142.392L37.8061 141.959L34.3078 139.94L34.0578 140.373L30.5594 138.353L30.8094 137.92L27.3111 135.9L27.0611 136.333L23.5628 134.313L23.8128 133.88L20.3145 131.861L20.0645 132.294L16.5662 130.274L16.8162 129.841L13.3179 127.821L13.0679 128.254L9.56958 126.234L9.81958 125.801L6.32127 123.782L6.07127 124.215L2.57296 122.195L2.82296 121.762L1.32381 120.896V119.165H0.823807V115.126H1.32381V111.086H0.823807V107.047H1.32381V103.007H0.823807V98.9678H1.32381V94.9283H0.823807V90.8888H1.32381V86.8493H0.823807V82.8098H1.32381V78.7702H0.823807V74.7308H1.32381V70.6912H0.823807V66.6517H1.32381V62.6122H0.823807V58.5728H1.32381V54.5332H0.823807V50.4938H1.32381V46.4543H0.823807V42.4147H1.32381V40.6837L2.82296 39.8181L2.57296 39.3851L6.07127 37.3654L6.32127 37.7984L9.81957 35.7786L9.56957 35.3456L13.0679 33.3259L13.3179 33.7589L16.8162 31.7391L16.5662 31.3061L20.0645 29.2864L20.3145 29.7194L23.8128 27.6996L23.5628 27.2666L27.0611 25.2469L27.3111 25.6799L30.8094 23.6601L30.5594 23.2271L34.0577 21.2074L34.3077 21.6404L37.8061 19.6206L37.5561 19.1876L41.0544 17.1679L41.3044 17.6009L44.8027 15.5811L44.5527 15.1481L48.051 13.1284L48.301 13.5614L51.7993 11.5416L51.5493 11.1086L55.0476 9.08888L55.2976 9.52189L58.7959 7.50214L58.5459 7.06913L62.0442 5.04938L62.2942 5.48239L65.7925 3.46264L65.5425 3.02963Z" fill="white" stroke="#2F455C" stroke-dasharray="4 4"/>
</svg>
