<svg width="835" height="852" viewBox="0 0 835 852" fill="none" xmlns="http://www.w3.org/2000/svg">
<path d="M205.206 1.40849H747.335C749.964 1.47982 752.594 1.04346 755.273 1.04346C798.236 1.04346 833.063 32.8224 833.063 72.0237C833.063 111.225 798.236 143.004 755.273 143.004C752.594 143.004 749.945 142.88 747.335 142.639H453" stroke="#21D082" stroke-dasharray="6 6"/>
<path d="M453 284.365H739.335C741.964 284.436 744.593 284 747.273 284C790.235 284 825.063 315.779 825.063 354.98C825.063 394.182 790.235 425.96 747.273 425.96C744.593 425.96 741.945 425.837 739.335 425.595H453" stroke="#21D082" stroke-dasharray="6 6"/>
<path d="M453 850.361H739.335C741.964 850.432 744.593 849.996 747.273 849.996" stroke="#21D082" stroke-dasharray="6 6"/>
<path d="M453 567.365H739.335C741.964 567.436 744.593 567 747.273 567C790.235 567 825.063 598.779 825.063 637.98C825.063 677.182 790.235 708.96 747.273 708.96C744.593 708.96 741.945 708.837 739.335 708.595H453" stroke="#21D082" stroke-dasharray="6 6"/>
<path d="M453 284.599L94.7282 284.599C92.0993 284.528 89.4699 284.964 86.79 284.964C43.8279 284.964 9.00025 253.185 9.00025 213.984C9.00025 174.783 43.8279 143.004 86.7901 143.004C89.4699 143.004 92.1181 143.127 94.7282 143.369L453 143.369" stroke="#21D082" stroke-dasharray="6 6"/>
<path d="M453 850.595L94.7282 850.595C92.0993 850.524 89.4699 850.96 86.79 850.96C43.8279 850.96 9.00025 819.181 9.00025 779.98C9.00025 740.779 43.8279 709 86.7901 709C89.4699 709 92.1181 709.124 94.7282 709.365L453 709.365" stroke="#21D082" stroke-dasharray="6 6"/>
<path d="M453 567.556L86.728 567.556C84.099 567.485 81.4697 567.921 78.7898 567.921C35.8277 567.921 1 536.142 1.00001 496.941C1.00001 457.739 35.8277 425.96 78.7898 425.96C81.4697 425.96 84.1179 426.084 86.728 426.325L453 426.325" stroke="#21D082" stroke-dasharray="6 6"/>
</svg>
