<svg width="1440" height="229" viewBox="0 0 1440 229" fill="none" xmlns="http://www.w3.org/2000/svg">
<g clip-path="url(#clip0_725_1847)">
<path fill-rule="evenodd" clip-rule="evenodd" d="M-5.05559e-06 157.171C194 62.5 254.5 78.549 360 117.86C465.5 157.171 498 213.329 618 207.713C738 202.098 791 125.963 911 103.5C1031 81.0364 1094 215 1209.5 215C1325 215 1440 157.171 1440 157.171L1440 -45L1380 -45C1320 -45 1200 -45 1080 -45C960 -45 840 -45 720 -44.9999C600 -44.9999 480 -44.9999 360 -44.9999C240 -44.9999 120 -44.9999 60 -44.9999L-5.56377e-06 -44.9999L-5.05559e-06 157.171Z" fill="white"/>
</g>
<defs>
<clipPath id="clip0_725_1847">
<rect width="1440" height="274" fill="white" transform="translate(0 -45)"/>
</clipPath>
</defs>
</svg>
