<svg width="100" height="100" viewBox="0 0 100 100" fill="none" xmlns="http://www.w3.org/2000/svg">
<g clip-path="url(#clip0_924_3330)">
<path d="M57.3908 55.3446C56.8383 54.9108 56.191 54.6124 55.5012 54.4734C54.8115 54.3344 54.0985 54.3587 53.4199 54.5443C51.9144 54.8289 50.3625 54.7529 48.8923 54.3227C47.6838 53.9415 46.5589 53.3357 45.577 52.5375C44.4485 51.5236 42.9779 50.9697 41.4576 50.9862C40.2829 51.0392 39.1415 51.391 38.1424 52.0081C36.984 52.7285 35.9725 53.66 35.1611 54.7536C33.0952 57.4376 31.8705 62.0299 34.0477 65.7604C35.9775 69.0723 39.4907 69.8726 42.0638 70.4513C43.8027 70.8658 45.5828 71.0846 47.3707 71.1038C52.022 71.1038 54.7312 69.3309 56.2528 67.5949C59.4815 63.8767 60.0505 57.7331 57.3908 55.3446ZM54.3972 65.9205C52.0839 68.5306 48.113 69.2324 42.6081 67.9889C40.369 67.4841 37.5733 66.8562 36.1878 64.4677C35.6408 63.5078 35.3631 62.4192 35.3837 61.3159C35.4066 59.468 36.0172 57.6749 37.128 56.1941C37.6191 55.4361 38.2692 54.7927 39.0336 54.3082C39.798 53.8236 40.6587 53.5094 41.5566 53.387H41.6927C42.5999 53.4442 43.4562 53.8244 44.1049 54.4581C45.3065 55.4211 46.6785 56.1518 48.1501 56.6127C49.9503 57.1704 51.8567 57.3011 53.7168 56.9944C54.9539 56.8466 55.3373 56.8343 55.7332 57.1791C57.2177 58.5087 56.8218 63.1626 54.3972 65.9205Z" fill="url(#paint0_linear_924_3330)"/>
<path d="M89.9753 48.3884C89.7235 41.4078 87.631 34.6158 83.9078 28.6946C80.1847 22.7733 74.9619 17.9311 68.7638 14.654C62.5657 11.3769 55.6104 9.78028 48.5963 10.0245C41.5822 10.2686 34.756 12.345 28.8032 16.0451C28.0733 16.5007 27.3805 16.9685 26.6878 17.461C21.531 21.1512 17.3289 26.0079 14.4275 31.6311C11.5262 37.2542 10.0087 43.483 10 49.8043C10 50.5553 10 51.3063 10.0619 52.0327C10.1237 52.7591 10.1979 53.8426 10.3093 54.7906V54.8891C11.1733 61.5878 13.7356 67.9575 17.7552 73.3989C21.7747 78.8402 27.1193 83.1742 33.2858 85.9929C39.4524 88.8116 46.2382 90.0223 53.0046 89.5111C59.7709 89 66.2954 86.7837 71.9638 83.0709C72.5823 82.677 73.2009 82.2584 73.7452 81.8398C78.7068 78.2351 82.7574 73.5306 85.5765 68.0986C88.3956 62.6667 89.9058 56.6562 89.9876 50.543C89.9876 50.3091 89.9876 50.0505 89.9876 49.8043C90 49.3241 89.9876 48.8563 89.9753 48.3884ZM12.5854 52.4883C12.5854 52.2913 12.5854 52.0943 12.5854 51.9096C12.5854 51.2078 12.5854 50.5061 12.5854 49.8043C12.5816 43.8897 13.9854 38.0583 16.6817 32.7876C19.378 27.5168 23.2902 22.9565 28.098 19.4801C29.5083 21.5855 31.0298 23.6415 32.6133 25.6361C33.6224 27.1713 35.1419 28.3044 36.9058 28.8372C37.8936 29.0161 38.8955 29.1068 39.8995 29.108C40.98 29.0885 42.0581 29.2169 43.1035 29.4897C44.558 29.961 45.8307 30.8681 46.7474 32.0868C47.6641 33.3055 48.1802 34.7764 48.2248 36.2982C48.2403 36.8622 48.1231 37.422 47.8825 37.9329C47.642 38.4438 47.2847 38.8916 46.8393 39.2407C45.2064 40.4719 42.3983 40.3118 40.3201 39.7824H40.1345C36.5471 38.859 32.4772 37.8125 28.531 38.3419C21.7767 39.2284 21.2943 44.8549 20.9355 48.9671C20.75 51.097 20.1438 52.5252 19.1294 53.227C17.5213 54.3227 15.0472 53.5594 12.8205 52.6606L12.5854 52.4883ZM72.2731 79.8576L71.9638 80.0915C71.1664 79.545 70.4818 78.8512 69.9474 78.0477C69.7449 77.7248 69.6315 77.3546 69.6184 76.9742C69.6054 76.5938 69.6933 76.2167 69.8732 75.8808C70.4055 75.3194 71.0682 74.8966 71.803 74.6496C72.5843 74.3532 73.3146 73.9379 73.9678 73.4184C75.568 71.9379 76.5337 69.9009 76.6646 67.7304C76.7427 65.021 75.9449 62.3582 74.3884 60.1339C74.2524 59.9246 74.1163 59.74 73.9802 59.543C73.5731 58.9784 73.221 58.3765 72.9287 57.7454C72.8084 57.5089 72.7376 57.2506 72.7206 56.986C72.7035 56.7215 72.7407 56.4563 72.8298 56.2064C73.2006 55.646 73.7706 55.2458 74.4256 55.0861C76.7141 54.335 79.0397 53.621 81.3035 52.9315H81.4149C83.4313 52.3036 85.4724 51.7003 87.5012 51.0108C87.3429 56.6568 85.8883 62.1919 83.2487 67.192C80.6092 72.1921 76.8548 76.5246 72.2731 79.8576V79.8576ZM80.8335 50.937H80.7221C78.4583 51.6264 76.1079 52.3528 73.807 53.1162C73.2234 53.264 72.6768 53.5307 72.202 53.8994C71.7272 54.2681 71.3344 54.7309 71.0484 55.2584C70.8315 55.7428 70.7193 56.2671 70.7193 56.7974C70.7193 57.3277 70.8315 57.8521 71.0484 58.3364C71.3791 59.1058 71.7939 59.8366 72.2855 60.5156L72.6689 61.0696C73.9851 62.9492 74.6733 65.1934 74.6358 67.4841C74.5331 69.1501 73.7939 70.7138 72.57 71.8548C72.0873 72.2368 71.5546 72.5516 70.9865 72.7905C69.9235 73.1777 68.9839 73.8409 68.265 74.7112C67.8761 75.3475 67.6705 76.0779 67.6705 76.8227C67.6705 77.5674 67.8761 78.2979 68.265 78.9342C68.7859 79.8106 69.4753 80.5763 70.2938 81.1872C65.0205 84.5704 58.9785 86.5824 52.7213 87.0391C46.4641 87.4958 40.1919 86.3825 34.4791 83.8012C28.7663 81.2199 23.7956 77.2531 20.0225 72.2643C16.2493 67.2754 13.7943 61.424 12.8823 55.2461C14.2494 55.7949 15.7018 56.1032 17.1749 56.1572C18.3685 56.1871 19.5413 55.8425 20.5273 55.1722C22.1849 54.0396 23.1498 51.9958 23.3972 49.1025C23.8178 44.2639 24.3993 41.2968 28.8526 40.7058C32.3287 40.2503 35.9904 41.186 39.516 42.097H39.7016C43.1035 42.9712 46.3321 42.6265 48.3609 41.1613C49.1024 40.5942 49.7033 39.8653 50.1172 39.0307C50.5311 38.1961 50.7471 37.2781 50.7484 36.3474C50.7123 34.2858 50.0334 32.2863 48.8057 30.6254C47.5779 28.9646 45.862 27.7244 43.8952 27.0766C42.6343 26.7315 41.3307 26.5657 40.0232 26.5841C39.1647 26.5869 38.3077 26.5127 37.4625 26.3625C36.2758 25.9203 35.2675 25.1029 34.5925 24.0355C33.0091 22.1641 31.5247 20.1696 30.1515 18.1135C35.7359 14.6519 42.1364 12.712 48.7115 12.4882C55.2866 12.2645 61.8053 13.7648 67.6141 16.8388C73.423 19.9128 78.3179 24.4524 81.8083 30.0027C85.2987 35.553 87.2619 41.9189 87.5012 48.4623C87.5012 48.5854 87.5012 48.7085 87.5012 48.8439C85.2868 49.5703 82.9859 50.2598 80.8335 50.937V50.937Z" fill="url(#paint1_linear_924_3330)"/>
</g>
<defs>
<linearGradient id="paint0_linear_924_3330" x1="32.8984" y1="61.0448" x2="59.0761" y2="61.0448" gradientUnits="userSpaceOnUse">
<stop stop-color="#41C6EE"/>
<stop offset="1" stop-color="#6CC7B4"/>
</linearGradient>
<linearGradient id="paint1_linear_924_3330" x1="10" y1="49.8127" x2="89.9928" y2="49.8127" gradientUnits="userSpaceOnUse">
<stop stop-color="#41C6EE"/>
<stop offset="1" stop-color="#6CC7B4"/>
</linearGradient>
<clipPath id="clip0_924_3330">
<rect width="80" height="79.6208" fill="white" transform="translate(10 10)"/>
</clipPath>
</defs>
</svg>
