<svg width="100" height="100" viewBox="0 0 100 100" fill="none" xmlns="http://www.w3.org/2000/svg">
<path d="M71.3757 42.3112L90 15.738L88.5495 14.7092L69.403 41.949C68.1556 41.7317 66.8647 41.5433 65.5157 41.3694L81.4711 11.8549L79.9046 11L63.6156 41.1376C58.4862 40.5681 53.3288 40.2875 48.1678 40.2972C27.3243 40.2972 10.3825 44.644 10.0054 49.8746C9.9982 49.9372 9.9982 50.0004 10.0054 50.063C9.9966 51.6138 10.0984 53.1632 10.31 54.6995C10.3886 55.5615 10.5194 56.4179 10.7016 57.2641C11.7083 62.4727 13.7918 67.4142 16.8189 71.7727C19.8459 76.1313 23.75 79.811 28.2816 82.5768C29.0068 83.0115 29.7321 83.4462 30.5153 83.8374C35.6288 86.5395 41.2973 88.027 47.08 88.1842C47.4571 88.1842 47.8197 88.1842 48.1968 88.1842C48.574 88.1842 48.8786 88.1842 49.2122 88.1842C54.2517 88.0829 59.2173 86.9538 63.8041 84.8661C64.5294 84.5474 65.2546 84.2141 65.9509 83.8229C70.821 81.2627 75.0803 77.6821 78.4373 73.3259C81.7944 68.9696 84.1701 63.9406 85.4019 58.5826C85.5905 57.8147 85.7501 57.0178 85.8661 56.2064C86.2043 54.176 86.3741 52.1213 86.3738 50.063C86.381 50.0004 86.381 49.9372 86.3738 49.8746C86.1417 46.7884 80.2817 44.0499 71.3757 42.3112ZM64.6889 43.0212C65.9654 43.1516 67.1838 43.34 68.3442 43.5283L62.9919 51.0482C61.972 51.4217 60.9177 51.6935 59.8443 51.8596L64.6889 43.0212ZM64.6889 52.3088C67.1846 51.2399 69.902 50.7897 72.6095 50.9966C75.317 51.2035 77.9343 52.0613 80.2382 53.4969C73.9482 55.7709 67.363 57.1275 60.6856 57.5249C59.9458 57.5249 59.1626 57.6553 58.3793 57.6988L56.6967 57.8147L54.5935 57.9161C52.5773 58.0031 50.4596 58.0465 48.2549 58.0465C31.0085 58.0465 19.7092 55.3371 14.7485 52.787C17.3742 50.7119 20.5594 49.4658 23.8975 49.2077C27.2355 48.9496 30.5748 49.6913 33.4889 51.338C37.0954 53.2638 41.2689 53.8491 45.2668 52.9898C47.6751 52.5561 50.1485 52.645 52.5193 53.2506C53.9155 53.6229 55.3532 53.8176 56.7983 53.8302C57.4836 53.8883 58.1726 53.8883 58.8579 53.8302V53.8302C59.7244 53.7572 60.5832 53.6118 61.4253 53.3955C62.3785 53.1922 63.3108 52.9011 64.2103 52.5261C64.3547 52.4789 64.4953 52.4207 64.6309 52.3523L64.6889 52.3088ZM48.1678 42.0794C53.0119 42.063 57.8535 42.2999 62.6727 42.7894L57.6395 52.0625C56.0267 52.1338 54.4124 51.9578 52.8529 51.5409C50.2258 50.8723 47.4858 50.7735 44.8172 51.2511C41.2308 52.0046 37.4939 51.4926 34.2431 49.8022C30.9264 47.9315 27.1152 47.1216 23.3233 47.4817C19.5315 47.8418 15.9413 49.3546 13.0369 51.8162C12.1666 51.1787 11.7315 50.5701 11.7315 50.063C11.7895 47.2666 24.2927 42.0794 48.1678 42.0794ZM84.2706 54.4677C84.2706 55.2211 84.082 55.9166 83.937 56.7135C82.8863 62.3566 80.513 67.6709 77.0112 72.2216C73.5093 76.7724 68.9786 80.4301 63.7896 82.8956C63.1303 83.2331 62.4523 83.533 61.7589 83.7939C60.8596 84.1706 59.9168 84.5039 58.9595 84.8082C55.7459 85.7904 52.4124 86.3267 49.0526 86.402H47.254C43.9281 86.3196 40.6291 85.7834 37.4487 84.8082C35.8471 84.3207 34.2856 83.7104 32.7781 82.9825C32.0529 82.6638 31.3276 82.3015 30.6749 81.9103C25.7394 79.1964 21.5009 75.3766 18.2921 70.7509C15.0833 66.1251 12.9915 60.8194 12.1811 55.2501C12.0796 54.5546 11.9926 53.8012 11.9345 53.1347C12.3644 53.4655 12.8204 53.7611 13.298 54.0185C19.2305 57.467 32.6186 59.8142 48.1968 59.8142C50.0245 59.8142 51.8231 59.8142 53.5782 59.7128L55.6379 59.5969H57.0884L59.3801 59.4375C69.0839 58.6696 77.1632 56.9599 81.8918 54.714C82.4531 54.4464 82.9958 54.1414 83.5163 53.8012C83.8438 53.6089 84.1587 53.396 84.4591 53.1637C84.4301 53.5694 84.4301 54.0185 84.2996 54.4677H84.2706ZM82.0223 52.5986C78.876 50.3709 75.1162 49.1713 71.2597 49.1646C69.452 49.1685 67.6544 49.432 65.9218 49.9471L70.1863 43.8616C79.687 45.6438 84.5752 48.3243 84.5752 50.063C84.6042 50.7874 83.7484 51.6858 82.0513 52.5986H82.0223Z" fill="url(#paint0_linear_924_3266)"/>
<path d="M28.2239 53.787C29.025 53.787 29.6744 53.1383 29.6744 52.3381C29.6744 51.5379 29.025 50.8892 28.2239 50.8892C27.4228 50.8892 26.7734 51.5379 26.7734 52.3381C26.7734 53.1383 27.4228 53.787 28.2239 53.787Z" fill="url(#paint1_linear_924_3266)"/>
<path d="M54.3333 58.1338C55.1344 58.1338 55.7838 57.4851 55.7838 56.6849C55.7838 55.8847 55.1344 55.236 54.3333 55.236C53.5322 55.236 52.8828 55.8847 52.8828 56.6849C52.8828 57.4851 53.5322 58.1338 54.3333 58.1338Z" fill="url(#paint2_linear_924_3266)"/>
<path d="M39.8268 55.9604C40.2274 55.9604 40.5521 55.636 40.5521 55.2359C40.5521 54.8358 40.2274 54.5115 39.8268 54.5115C39.4263 54.5115 39.1016 54.8358 39.1016 55.2359C39.1016 55.636 39.4263 55.9604 39.8268 55.9604Z" fill="url(#paint3_linear_924_3266)"/>
<path d="M69.5612 55.2358C69.9617 55.2358 70.2864 54.9114 70.2864 54.5113C70.2864 54.1112 69.9617 53.7869 69.5612 53.7869C69.1606 53.7869 68.8359 54.1112 68.8359 54.5113C68.8359 54.9114 69.1606 55.2358 69.5612 55.2358Z" fill="url(#paint4_linear_924_3266)"/>
<defs>
<linearGradient id="paint0_linear_924_3266" x1="10" y1="49.5921" x2="90" y2="49.5921" gradientUnits="userSpaceOnUse">
<stop stop-color="#41C6EE"/>
<stop offset="1" stop-color="#6CC7B4"/>
</linearGradient>
<linearGradient id="paint1_linear_924_3266" x1="26.7734" y1="52.3381" x2="29.6744" y2="52.3381" gradientUnits="userSpaceOnUse">
<stop stop-color="#41C6EE"/>
<stop offset="1" stop-color="#6CC7B4"/>
</linearGradient>
<linearGradient id="paint2_linear_924_3266" x1="52.8828" y1="56.6849" x2="55.7838" y2="56.6849" gradientUnits="userSpaceOnUse">
<stop stop-color="#41C6EE"/>
<stop offset="1" stop-color="#6CC7B4"/>
</linearGradient>
<linearGradient id="paint3_linear_924_3266" x1="39.1016" y1="55.2359" x2="40.5521" y2="55.2359" gradientUnits="userSpaceOnUse">
<stop stop-color="#41C6EE"/>
<stop offset="1" stop-color="#6CC7B4"/>
</linearGradient>
<linearGradient id="paint4_linear_924_3266" x1="68.8359" y1="54.5113" x2="70.2864" y2="54.5113" gradientUnits="userSpaceOnUse">
<stop stop-color="#41C6EE"/>
<stop offset="1" stop-color="#6CC7B4"/>
</linearGradient>
</defs>
</svg>
