<svg width="100" height="100" viewBox="0 0 100 100" fill="none" xmlns="http://www.w3.org/2000/svg">
<path d="M38.5078 33.4881H38.7749C38.7637 33.3996 38.7637 33.3101 38.7749 33.2217L38.5078 33.4881ZM49.7905 28.6705L49.9908 28.8481L50.1911 28.6705H49.7905ZM61.2067 33.2217C61.2179 33.3101 61.2179 33.3996 61.2067 33.4881H61.4738L61.2067 33.2217ZM38.5078 55.8663L38.7749 56.1327C38.7637 56.0443 38.7637 55.9548 38.7749 55.8663C38.6862 55.8775 38.5965 55.8775 38.5078 55.8663V55.8663ZM49.9908 60.5951L49.7905 60.7727H50.1911L49.9908 60.5951ZM61.1177 55.9551C61.1289 56.0436 61.1289 56.1331 61.1177 56.2215L61.3847 55.9551C61.3228 55.9311 61.2632 55.9014 61.2067 55.8663L61.1177 55.9551Z" fill="url(#paint0_linear_924_3285)"/>
<path d="M61.2071 55.8663C61.2183 55.9548 61.2183 56.0443 61.2071 56.1327L61.4742 55.8663C61.3855 55.8775 61.2958 55.8775 61.2071 55.8663ZM50.0802 60.5063L49.8799 60.6839H50.2805L50.0802 60.5063ZM65.9472 44.6772L66.1252 44.877V44.4774L65.9472 44.6772ZM49.8799 28.6705L50.0802 28.8481L50.2805 28.6705H49.8799ZM38.5972 33.4881H38.8643C38.8531 33.3996 38.8531 33.3101 38.8643 33.2217L38.5972 33.4881ZM34.1465 44.5884V44.988L34.3245 44.7882L34.1465 44.5884Z" fill="url(#paint1_linear_924_3285)"/>
<path d="M49.9904 60.5952L49.7901 60.7729H50.1907L49.9904 60.5952ZM38.5074 55.9553L38.7744 56.2217C38.7633 56.1333 38.7633 56.0438 38.7744 55.9553C38.6819 55.9376 38.5921 55.9077 38.5074 55.8665V55.9553ZM34.0566 44.5664V44.966L34.2347 44.7662L34.0566 44.5664ZM61.3176 33.3107C61.3287 33.3991 61.3287 33.4886 61.3176 33.5771H61.5846L61.3176 33.3107ZM65.9686 44.7662L66.1467 44.966V44.5664L65.9686 44.7662ZM49.9014 28.7595L50.1016 28.9371L50.3019 28.7595H49.9014Z" fill="url(#paint2_linear_924_3285)"/>
<path d="M49.7891 28.6705L49.9893 28.8481L50.1896 28.6705H49.7891Z" fill="url(#paint3_linear_924_3285)"/>
<path d="M33.9004 44.4777V44.8773L34.0784 44.6775L33.9004 44.4777Z" fill="url(#paint4_linear_924_3285)"/>
<path d="M65.8574 44.6775L66.0355 44.8773V44.4777L65.8574 44.6775Z" fill="url(#paint5_linear_924_3285)"/>
<path d="M89.9802 47.6301C89.4013 37.4988 84.9678 27.97 77.5849 20.9893C76.5148 19.9622 75.3853 18.9986 74.2023 18.1032C68.1955 13.5332 61.01 10.7614 53.484 10.111H52.9499C51.9707 10.111 50.9915 10 49.9901 10C48.9887 10 47.7647 10 46.7856 10.1332H46.296C38.7869 10.8053 31.628 13.6097 25.6667 18.2142C24.4784 19.103 23.3485 20.067 22.2841 21.1003C14.9533 28.1068 10.5627 37.6288 10 47.7411C10 48.4737 10 49.2063 10 49.9612C10 50.716 10 51.4486 10 52.1812C10.5745 62.2998 14.9814 71.8227 22.3286 78.822C23.4012 79.8618 24.5384 80.8332 25.7335 81.7303C31.6879 86.2917 38.819 89.0711 46.296 89.7447H46.7856C47.8241 89.8335 48.8923 89.8779 49.9901 89.8779C50.9915 89.8779 51.9707 89.8779 52.9499 89.8779H53.484C61.0384 89.2294 68.2498 86.4411 74.269 81.8413C75.4523 80.9384 76.5818 79.9673 77.6516 78.933C85.0155 71.9456 89.4257 62.4158 89.9802 52.2922C89.9802 51.5596 89.9802 50.827 89.9802 50.0722C89.9802 49.3173 90.0247 48.3627 89.9802 47.6301ZM70.6639 20.9893C68.5462 22.5089 66.2706 23.7965 63.8765 24.83C62.1707 21.4178 60.0962 18.2018 57.6899 15.2394C62.3591 16.2396 66.774 18.1812 70.6639 20.9449V20.9893ZM50.1904 28.7151L49.9901 28.8928L49.7898 28.7151H50.1904ZM47.6535 47.6745H34.3012C34.5321 41.7352 35.8285 35.8853 38.1288 30.4024C41.2006 31.3441 44.3773 31.9034 47.5867 32.0674L47.6535 47.6745ZM50.1904 60.5953H49.7898L49.9901 60.4177L50.1904 60.5953ZM47.6535 51.9814V67.5219C44.4438 67.7135 41.2686 68.2874 38.1956 69.2313C35.9078 63.7289 34.612 57.8668 34.3679 51.9148L47.6535 51.9814ZM52.1042 51.9814H65.4565C65.2196 57.9105 63.9312 63.7508 61.6511 69.2313C58.5704 68.2988 55.3865 67.7471 52.171 67.5885L52.1042 51.9814ZM52.1042 47.5413V32.0008C55.3136 31.8368 58.4903 31.2775 61.5621 30.3358C63.8624 35.8187 65.1588 41.6686 65.3898 47.6079L52.1042 47.5413ZM59.6483 26.1843C57.1934 26.9091 54.6611 27.3413 52.1042 27.4719V15.4836C55.0841 18.733 57.6207 22.3609 59.6483 26.2731V26.1843ZM47.6535 15.3948V27.4719C45.0966 27.3413 42.5643 26.9091 40.1094 26.1843C42.1437 22.3033 44.68 18.7056 47.6535 15.4836V15.3948ZM42.0233 15.1505C39.6365 18.1021 37.5771 21.3029 35.8812 24.6968C33.5293 23.6847 31.2915 22.4271 29.205 20.9449C33.05 18.2029 37.4096 16.2624 42.0233 15.2394V15.1505ZM25.6667 23.942C28.2442 25.8888 31.0458 27.521 34.0119 28.8039C31.5364 34.7877 30.1426 41.1615 29.8949 47.6301H14.4508C15.0141 38.5934 19.0281 30.1159 25.6667 23.942ZM34.1231 44.6774L33.9451 44.8772V44.4776L34.1231 44.6774ZM14.4508 52.0702H29.8949C30.1501 58.5545 31.5513 64.9428 34.0341 70.9408C31.0752 72.2105 28.2867 73.8438 25.7335 75.8027C19.0505 69.6357 15.0092 61.135 14.4508 52.0702ZM29.2718 78.711C31.3515 77.2183 33.5905 75.96 35.948 74.9591C37.6447 78.3337 39.6961 81.5189 42.0678 84.461C37.4583 83.4222 33.1062 81.4665 29.2718 78.711ZM40.1317 73.4494C42.5828 72.7332 45.105 72.2865 47.6535 72.1174V84.2168C44.6859 80.9706 42.1571 77.3507 40.1317 73.4494ZM52.1042 84.2168V72.1174C54.6671 72.259 57.2055 72.691 59.6705 73.405C57.6274 77.32 55.0841 80.9542 52.1042 84.2168ZM57.6899 84.5054C60.0992 81.5326 62.1808 78.3097 63.8988 74.8925C66.3036 75.9094 68.5876 77.1901 70.7084 78.711C66.8136 81.5134 62.3821 83.4858 57.6899 84.5054ZM74.269 75.8027C71.6485 73.8066 68.7938 72.1366 65.7681 70.8298C68.2255 64.8646 69.6116 58.5146 69.8628 52.0702H85.4405C84.8866 61.1128 80.8903 69.6025 74.269 75.8027ZM65.8571 44.7218L66.0351 44.522V44.9216L65.8571 44.7218ZM69.8628 47.6745C69.6151 41.2059 68.2213 34.8321 65.7458 28.8484C68.7619 27.5498 71.6029 25.8791 74.2023 23.8754C80.8862 30.0557 84.9402 38.5575 85.5295 47.6301L69.8628 47.6745Z" fill="url(#paint6_linear_924_3285)"/>
<path d="M49.9893 60.5953L50.1896 60.773H49.7891L49.9893 60.5953Z" fill="url(#paint7_linear_924_3285)"/>
<path d="M49.9893 28.8481L49.7891 28.6705H50.1896L49.9893 28.8481Z" fill="url(#paint8_linear_924_3285)"/>
<defs>
<linearGradient id="paint0_linear_924_3285" x1="38.5078" y1="44.7216" x2="61.4738" y2="44.7216" gradientUnits="userSpaceOnUse">
<stop stop-color="#41C6EE"/>
<stop offset="1" stop-color="#6CC7B4"/>
</linearGradient>
<linearGradient id="paint1_linear_924_3285" x1="34.1465" y1="44.6772" x2="66.1252" y2="44.6772" gradientUnits="userSpaceOnUse">
<stop stop-color="#41C6EE"/>
<stop offset="1" stop-color="#6CC7B4"/>
</linearGradient>
<linearGradient id="paint2_linear_924_3285" x1="34.0566" y1="44.7662" x2="66.1467" y2="44.7662" gradientUnits="userSpaceOnUse">
<stop stop-color="#41C6EE"/>
<stop offset="1" stop-color="#6CC7B4"/>
</linearGradient>
<linearGradient id="paint3_linear_924_3285" x1="49.7891" y1="28.7593" x2="50.1896" y2="28.7593" gradientUnits="userSpaceOnUse">
<stop stop-color="#41C6EE"/>
<stop offset="1" stop-color="#6CC7B4"/>
</linearGradient>
<linearGradient id="paint4_linear_924_3285" x1="33.9004" y1="44.6775" x2="34.0784" y2="44.6775" gradientUnits="userSpaceOnUse">
<stop stop-color="#41C6EE"/>
<stop offset="1" stop-color="#6CC7B4"/>
</linearGradient>
<linearGradient id="paint5_linear_924_3285" x1="65.8574" y1="44.6775" x2="66.0355" y2="44.6775" gradientUnits="userSpaceOnUse">
<stop stop-color="#41C6EE"/>
<stop offset="1" stop-color="#6CC7B4"/>
</linearGradient>
<linearGradient id="paint6_linear_924_3285" x1="10" y1="49.939" x2="90" y2="49.939" gradientUnits="userSpaceOnUse">
<stop stop-color="#41C6EE"/>
<stop offset="1" stop-color="#6CC7B4"/>
</linearGradient>
<linearGradient id="paint7_linear_924_3285" x1="49.7891" y1="60.6842" x2="50.1896" y2="60.6841" gradientUnits="userSpaceOnUse">
<stop stop-color="#41C6EE"/>
<stop offset="1" stop-color="#6CC7B4"/>
</linearGradient>
<linearGradient id="paint8_linear_924_3285" x1="49.7891" y1="28.7593" x2="50.1896" y2="28.7593" gradientUnits="userSpaceOnUse">
<stop stop-color="#41C6EE"/>
<stop offset="1" stop-color="#6CC7B4"/>
</linearGradient>
</defs>
</svg>
