<svg width="100" height="100" viewBox="0 0 100 100" fill="none" xmlns="http://www.w3.org/2000/svg">
<path d="M50.0059 28C55.3579 28 58.034 30.676 60.5361 33.0443C63.0382 35.4126 65.0452 37.433 69.4205 37.433C73.7958 37.433 75.8831 35.3992 78.2916 33.0443C80.7 30.6894 83.4964 28 88.8218 28C89.134 28 89.4335 28.1241 89.6543 28.3449C89.8752 28.5657 89.9992 28.8652 89.9992 29.1775C89.9992 29.4897 89.8752 29.7892 89.6543 30.01C89.4335 30.2309 89.134 30.3549 88.8218 30.3549C84.4598 30.3549 82.3591 32.3887 79.9373 34.7436C77.5155 37.0985 74.7458 39.8013 69.4205 39.8013C64.0952 39.8013 61.3924 37.1253 58.8903 34.7436C56.3882 32.3619 54.3812 30.3549 50.0059 30.3549" fill="url(#paint0_linear_924_3308)"/>
<path d="M50.0067 30.4086C45.6314 30.4086 43.5441 32.4423 41.1223 34.7973C38.7005 37.1522 35.9174 39.855 30.5921 39.855C25.2668 39.855 22.4971 37.1789 20.0619 34.7973C17.6267 32.4156 15.5528 30.4086 11.1775 30.4086C10.8652 30.4086 10.5657 30.2845 10.3449 30.0637C10.1241 29.8429 10 29.5434 10 29.2311C10 28.9188 10.1241 28.6193 10.3449 28.3985C10.5657 28.1777 10.8652 28.0536 11.1775 28.0536C16.5295 28.0536 19.2725 30.7297 21.7077 33.098C24.1428 35.4663 26.2168 37.4867 30.5921 37.4867C34.9674 37.4867 37.0547 35.4529 39.4765 33.098C41.8983 30.7431 44.668 28.0001 50.0067 28.0001" fill="url(#paint1_linear_924_3308)"/>
<path d="M20.7043 51.5758C19.6964 52.1943 18.4971 52.4227 17.3325 52.218C16.4078 51.8867 15.6242 51.2494 15.1114 50.4117C14.8583 50.7057 14.5058 50.8962 14.1212 50.9469C13.6281 50.9464 13.1522 50.7656 12.7832 50.4385C13.0836 50.0455 13.5161 49.7746 14.0008 49.6758V49.6758C13.9427 49.6423 13.8925 49.5966 13.8536 49.542C13.6132 49.0902 13.5557 48.5632 13.6931 48.0702C14.2051 48.1041 14.6843 48.3341 15.0311 48.7124C15.2205 48.9825 15.3189 49.3059 15.3121 49.6357C16.2263 49.1495 17.2817 48.9981 18.2958 49.2075C19.3568 49.6824 20.2116 50.5229 20.7043 51.5758Z" fill="url(#paint2_linear_924_3308)"/>
<path d="M39.9311 61.277C38.9122 61.8794 37.7067 62.0843 36.5459 61.8524C35.6291 61.4977 34.8601 60.8418 34.365 59.9925C34.1005 60.2769 33.7461 60.4612 33.3615 60.5144C32.8638 60.5117 32.3857 60.3204 32.0234 59.9792C32.3324 59.5944 32.7692 59.3332 33.2544 59.2433V59.2433C33.1897 59.2128 33.1377 59.1607 33.1072 59.0961C32.8681 58.6937 32.787 58.2168 32.8798 57.7581C33.1353 57.7723 33.3854 57.8377 33.6152 57.9503C33.845 58.0629 34.0499 58.2205 34.2178 58.4137C34.406 58.6882 34.4956 59.0183 34.472 59.3503C35.4034 58.8849 36.4675 58.7572 37.4825 58.989C38.5463 59.434 39.4151 60.2459 39.9311 61.277V61.277Z" fill="url(#paint3_linear_924_3308)"/>
<path d="M68.0958 56.098C67.7046 56.884 67.0378 57.4984 66.2225 57.8241C65.5135 57.9739 64.7747 57.8845 64.1218 57.5699C64.0743 57.8494 63.9327 58.1043 63.7204 58.2924C63.4055 58.4889 63.03 58.565 62.6634 58.5065C62.7002 58.14 62.8662 57.7985 63.1317 57.5431V57.5431H62.9845C62.6575 57.3848 62.4036 57.107 62.2754 56.7671C62.6017 56.5997 62.9791 56.5615 63.3324 56.66C63.5553 56.7565 63.7424 56.9202 63.8676 57.1283C64.2545 56.4633 64.8597 55.9527 65.5803 55.6833C66.4412 55.5049 67.3377 55.6527 68.0958 56.098V56.098Z" fill="url(#paint4_linear_924_3308)"/>
<path d="M87.2831 52.8333C86.8774 53.6639 86.1758 54.3129 85.3162 54.653C84.5667 54.8138 83.785 54.7196 83.0951 54.3854C83.0419 54.6804 82.8911 54.9489 82.667 55.148C82.3331 55.3596 81.9329 55.4406 81.543 55.3755C81.5564 55.0029 81.6928 54.6453 81.931 54.3586V54.3586C81.8782 54.3706 81.8233 54.3706 81.7705 54.3586C81.4229 54.1853 81.1513 53.89 81.0078 53.529C81.3557 53.3535 81.757 53.3153 82.1318 53.422C82.3704 53.5231 82.5716 53.6961 82.7071 53.9171C83.125 53.1752 83.8013 52.6132 84.6071 52.3382C85.5296 52.1552 86.4871 52.3323 87.2831 52.8333V52.8333Z" fill="url(#paint5_linear_924_3308)"/>
<path d="M60.5245 66.4682C59.8319 67.2494 58.8827 67.7572 57.8485 67.8999C56.9626 67.8546 56.1183 67.5103 55.4534 66.9231C55.314 67.243 55.0615 67.5003 54.7443 67.6457C54.305 67.7958 53.8244 67.7669 53.4062 67.5654C53.5671 67.1487 53.8705 66.8026 54.2626 66.5886C54.2036 66.5678 54.1491 66.5361 54.102 66.495C53.7656 66.1993 53.551 65.7892 53.4999 65.3443C53.726 65.2901 53.9607 65.2812 54.1903 65.3179C54.4199 65.3546 54.64 65.4364 54.8379 65.5584C55.0818 65.7403 55.2564 65.9998 55.333 66.2943C56.0047 65.615 56.8966 65.1975 57.8485 65.1168C58.8728 65.2347 59.8216 65.7138 60.5245 66.4682V66.4682Z" fill="url(#paint6_linear_924_3308)"/>
<path d="M79.5757 60.4067C79.1925 61.4038 78.4537 62.2236 77.5017 62.7081C76.6525 62.977 75.737 62.9487 74.906 62.6278C74.8824 62.9752 74.7352 63.3027 74.4912 63.551C74.1326 63.8269 73.6846 63.9603 73.2335 63.9257C73.2386 63.4768 73.4048 63.0447 73.7018 62.7081C73.6445 62.7213 73.5851 62.7213 73.5278 62.7081C73.1084 62.5432 72.7651 62.2285 72.5645 61.825C72.9429 61.5881 73.3966 61.5021 73.8356 61.5842C74.129 61.6704 74.384 61.8546 74.5581 62.106C74.9432 61.2337 75.6262 60.5269 76.4848 60.1123C77.5165 59.8293 78.616 59.934 79.5757 60.4067V60.4067Z" fill="url(#paint7_linear_924_3308)"/>
<path d="M80.822 44.8052C80.4096 45.634 79.7109 46.2853 78.8551 46.6383C78.0872 46.8108 77.2833 46.7115 76.5805 46.3573C76.53 46.6571 76.379 46.9308 76.1523 47.1334C75.8235 47.3453 75.4273 47.4264 75.0417 47.3608C75.078 46.973 75.2539 46.6116 75.5368 46.3439C75.5368 46.3439 75.5368 46.3439 75.5368 46.3439C75.4887 46.3577 75.4377 46.3577 75.3896 46.3439C75.038 46.176 74.7648 45.8788 74.627 45.5144C74.9703 45.3397 75.3671 45.3015 75.7375 45.4073C75.9787 45.5043 76.181 45.6784 76.3129 45.9024C76.722 45.1935 77.3655 44.6493 78.1326 44.3637C79.0528 44.1719 80.0114 44.3293 80.822 44.8052V44.8052Z" fill="url(#paint8_linear_924_3308)"/>
<path d="M28.4122 70.3212C27.8983 70.6302 27.2871 70.7353 26.6995 70.6155C26.2304 70.4383 25.8345 70.1084 25.5756 69.6789C25.4444 69.8249 25.2627 69.9158 25.0672 69.9331C24.8136 69.9359 24.5689 69.8399 24.3848 69.6655C24.5406 69.4669 24.7648 69.3334 25.0136 69.2909V69.2909C24.9875 69.2991 24.9595 69.2991 24.9334 69.2909C24.8049 69.0734 24.7619 68.8158 24.8129 68.5684C25.0656 68.5941 25.2995 68.7134 25.4686 68.9029C25.5616 69.0458 25.6084 69.2141 25.6024 69.3846C26.0733 69.146 26.613 69.0797 27.1277 69.1972C27.6794 69.4014 28.1366 69.8015 28.4122 70.3212V70.3212Z" fill="url(#paint9_linear_924_3308)"/>
<path d="M51.2907 53.4225C50.3792 53.9571 49.303 54.138 48.2668 53.9309C47.4469 53.6087 46.7557 53.0257 46.2999 52.2718C46.0659 52.5268 45.7474 52.6884 45.4034 52.7267C44.9575 52.727 44.5278 52.5599 44.1992 52.2584C44.4772 51.9094 44.8713 51.672 45.3098 51.5894V51.5894C45.2603 51.5599 45.2189 51.5185 45.1894 51.469C44.9471 51.0677 44.8703 50.5879 44.9753 50.131C45.4191 50.1761 45.8297 50.3862 46.126 50.7197C46.2939 50.9674 46.374 51.2641 46.3534 51.5627C47.1798 51.1438 48.1275 51.0301 49.0295 51.2415C50.0316 51.6569 50.8394 52.436 51.2907 53.4225V53.4225Z" fill="url(#paint10_linear_924_3308)"/>
<path d="M31.2735 48.0836C31.7169 48.0836 32.0763 47.7242 32.0763 47.2808C32.0763 46.8375 31.7169 46.478 31.2735 46.478C30.8301 46.478 30.4707 46.8375 30.4707 47.2808C30.4707 47.7242 30.8301 48.0836 31.2735 48.0836Z" fill="url(#paint11_linear_924_3308)"/>
<path d="M24.8653 59.3101C25.3087 59.3101 25.6681 58.9507 25.6681 58.5073C25.6681 58.0639 25.3087 57.7045 24.8653 57.7045C24.4219 57.7045 24.0625 58.0639 24.0625 58.5073C24.0625 58.9507 24.4219 59.3101 24.8653 59.3101Z" fill="url(#paint12_linear_924_3308)"/>
<path d="M32.8809 68.9303C33.3243 68.9303 33.6837 68.5709 33.6837 68.1275C33.6837 67.6841 33.3243 67.3247 32.8809 67.3247C32.4376 67.3247 32.0781 67.6841 32.0781 68.1275C32.0781 68.5709 32.4376 68.9303 32.8809 68.9303Z" fill="url(#paint13_linear_924_3308)"/>
<path d="M48.9239 41.6608C49.3673 41.6608 49.7267 41.3014 49.7267 40.858C49.7267 40.4146 49.3673 40.0552 48.9239 40.0552C48.4805 40.0552 48.1211 40.4146 48.1211 40.858C48.1211 41.3014 48.4805 41.6608 48.9239 41.6608Z" fill="url(#paint14_linear_924_3308)"/>
<path d="M61.754 49.6889C62.1974 49.6889 62.5568 49.3294 62.5568 48.8861C62.5568 48.4427 62.1974 48.0833 61.754 48.0833C61.3106 48.0833 60.9512 48.4427 60.9512 48.8861C60.9512 49.3294 61.3106 49.6889 61.754 49.6889Z" fill="url(#paint15_linear_924_3308)"/>
<path d="M47.3184 61.9859C47.7618 61.9859 48.1212 61.6264 48.1212 61.1831C48.1212 60.7397 47.7618 60.3802 47.3184 60.3802C46.8751 60.3802 46.5156 60.7397 46.5156 61.1831C46.5156 61.6264 46.8751 61.9859 47.3184 61.9859Z" fill="url(#paint16_linear_924_3308)"/>
<path d="M64.9669 72.1413C65.4103 72.1413 65.7697 71.7818 65.7697 71.3385C65.7697 70.8951 65.4103 70.5356 64.9669 70.5356C64.5235 70.5356 64.1641 70.8951 64.1641 71.3385C64.1641 71.7818 64.5235 72.1413 64.9669 72.1413Z" fill="url(#paint17_linear_924_3308)"/>
<path d="M76.1915 56.0982C76.6349 56.0982 76.9943 55.7387 76.9943 55.2954C76.9943 54.852 76.6349 54.4926 76.1915 54.4926C75.7481 54.4926 75.3887 54.852 75.3887 55.2954C75.3887 55.7387 75.7481 56.0982 76.1915 56.0982Z" fill="url(#paint18_linear_924_3308)"/>
<defs>
<linearGradient id="paint0_linear_924_3308" x1="50.0059" y1="33.9007" x2="89.9992" y2="33.9007" gradientUnits="userSpaceOnUse">
<stop stop-color="#6AC7B8"/>
<stop offset="1" stop-color="#6CC7B4"/>
</linearGradient>
<linearGradient id="paint1_linear_924_3308" x1="10" y1="33.9275" x2="50.0067" y2="33.9275" gradientUnits="userSpaceOnUse">
<stop stop-color="#41C6EE"/>
<stop offset="1" stop-color="#6CC7B4"/>
</linearGradient>
<linearGradient id="paint2_linear_924_3308" x1="12.7832" y1="50.1807" x2="20.7043" y2="50.1807" gradientUnits="userSpaceOnUse">
<stop stop-color="#41C6EE"/>
<stop offset="1" stop-color="#6CC7B4"/>
</linearGradient>
<linearGradient id="paint3_linear_924_3308" x1="32.0234" y1="59.8518" x2="39.9311" y2="59.8518" gradientUnits="userSpaceOnUse">
<stop stop-color="#41C6EE"/>
<stop offset="1" stop-color="#6CC7B4"/>
</linearGradient>
<linearGradient id="paint4_linear_924_3308" x1="62.2754" y1="57.0676" x2="68.0958" y2="57.0676" gradientUnits="userSpaceOnUse">
<stop stop-color="#41C6EE"/>
<stop offset="1" stop-color="#6CC7B4"/>
</linearGradient>
<linearGradient id="paint5_linear_924_3308" x1="81.0078" y1="53.8326" x2="87.2831" y2="53.8326" gradientUnits="userSpaceOnUse">
<stop stop-color="#41C6EE"/>
<stop offset="1" stop-color="#6CC7B4"/>
</linearGradient>
<linearGradient id="paint6_linear_924_3308" x1="53.4063" y1="66.5084" x2="60.5245" y2="66.5084" gradientUnits="userSpaceOnUse">
<stop stop-color="#41C6EE"/>
<stop offset="1" stop-color="#6CC7B4"/>
</linearGradient>
<linearGradient id="paint7_linear_924_3308" x1="72.5645" y1="61.9437" x2="79.5757" y2="61.9437" gradientUnits="userSpaceOnUse">
<stop stop-color="#41C6EE"/>
<stop offset="1" stop-color="#6CC7B4"/>
</linearGradient>
<linearGradient id="paint8_linear_924_3308" x1="74.627" y1="45.8335" x2="80.822" y2="45.8335" gradientUnits="userSpaceOnUse">
<stop stop-color="#41C6EE"/>
<stop offset="1" stop-color="#6CC7B4"/>
</linearGradient>
<linearGradient id="paint9_linear_924_3308" x1="24.3848" y1="69.6161" x2="28.4122" y2="69.6161" gradientUnits="userSpaceOnUse">
<stop stop-color="#41C6EE"/>
<stop offset="1" stop-color="#6CC7B4"/>
</linearGradient>
<linearGradient id="paint10_linear_924_3308" x1="44.1992" y1="52.0727" x2="51.2907" y2="52.0727" gradientUnits="userSpaceOnUse">
<stop stop-color="#41C6EE"/>
<stop offset="1" stop-color="#6CC7B4"/>
</linearGradient>
<linearGradient id="paint11_linear_924_3308" x1="30.4707" y1="47.2808" x2="32.0763" y2="47.2808" gradientUnits="userSpaceOnUse">
<stop stop-color="#41C6EE"/>
<stop offset="1" stop-color="#6CC7B4"/>
</linearGradient>
<linearGradient id="paint12_linear_924_3308" x1="24.0625" y1="58.5073" x2="25.6681" y2="58.5073" gradientUnits="userSpaceOnUse">
<stop stop-color="#41C6EE"/>
<stop offset="1" stop-color="#6CC7B4"/>
</linearGradient>
<linearGradient id="paint13_linear_924_3308" x1="32.0781" y1="68.1275" x2="33.6837" y2="68.1275" gradientUnits="userSpaceOnUse">
<stop stop-color="#41C6EE"/>
<stop offset="1" stop-color="#6CC7B4"/>
</linearGradient>
<linearGradient id="paint14_linear_924_3308" x1="48.1211" y1="40.858" x2="49.7267" y2="40.858" gradientUnits="userSpaceOnUse">
<stop stop-color="#41C6EE"/>
<stop offset="1" stop-color="#6CC7B4"/>
</linearGradient>
<linearGradient id="paint15_linear_924_3308" x1="60.9512" y1="48.8861" x2="62.5568" y2="48.8861" gradientUnits="userSpaceOnUse">
<stop stop-color="#41C6EE"/>
<stop offset="1" stop-color="#6CC7B4"/>
</linearGradient>
<linearGradient id="paint16_linear_924_3308" x1="46.5156" y1="61.1831" x2="48.1212" y2="61.1831" gradientUnits="userSpaceOnUse">
<stop stop-color="#41C6EE"/>
<stop offset="1" stop-color="#6CC7B4"/>
</linearGradient>
<linearGradient id="paint17_linear_924_3308" x1="64.1641" y1="71.3385" x2="65.7697" y2="71.3385" gradientUnits="userSpaceOnUse">
<stop stop-color="#41C6EE"/>
<stop offset="1" stop-color="#6CC7B4"/>
</linearGradient>
<linearGradient id="paint18_linear_924_3308" x1="75.3887" y1="55.2954" x2="76.9943" y2="55.2954" gradientUnits="userSpaceOnUse">
<stop stop-color="#41C6EE"/>
<stop offset="1" stop-color="#6CC7B4"/>
</linearGradient>
</defs>
</svg>
