<svg width="100" height="100" viewBox="0 0 100 100" fill="none" xmlns="http://www.w3.org/2000/svg">
<path fill-rule="evenodd" clip-rule="evenodd" d="M50.0007 87.5C63.8819 87.5 75.0007 76.4792 75.0007 63.048C75.0007 51.8875 68.3798 39.1188 61.1569 28.6688C57.7226 23.7221 53.9973 18.9838 50.0007 14.4792C46.004 18.9838 42.2787 23.7221 38.8444 28.6688C31.6215 39.1188 25.0007 51.8875 25.0007 63.048C25.0007 76.4771 36.1194 87.5 50.0007 87.5ZM47.1673 11.3959C39.8382 19.6021 20.834 42.8334 20.834 63.048C20.834 78.8542 33.8923 91.6667 50.0007 91.6667C66.109 91.6667 79.1673 78.8542 79.1673 63.048C79.1673 42.8334 60.1632 19.6021 52.834 11.3959C51.084 9.43754 50.0007 8.33337 50.0007 8.33337C50.0007 8.33337 48.9173 9.43754 47.1673 11.3959Z" fill="url(#paint0_linear_924_3274)"/>
<defs>
<linearGradient id="paint0_linear_924_3274" x1="20.834" y1="50" x2="79.1673" y2="50" gradientUnits="userSpaceOnUse">
<stop stop-color="#41C6EE"/>
<stop offset="1" stop-color="#6CC7B4"/>
</linearGradient>
</defs>
</svg>
