<svg width="100" height="100" viewBox="0 0 100 100" fill="none" xmlns="http://www.w3.org/2000/svg">
<path d="M88.9932 48.2689C85.3243 48.1947 81.7273 49.2948 78.7239 51.4097C76.351 53.0746 73.561 54.0401 70.6695 54.1971V43.5426H70.9414C71.4084 43.6388 71.8841 43.6861 72.3609 43.684C73.4173 43.6975 74.4588 43.4328 75.3813 42.9165C76.6459 42.0461 77.5737 40.766 78.0091 39.2909L78.2809 38.281L77.2741 38.0487C75.762 37.7392 74.1897 37.964 72.8241 38.685C72.5788 38.8629 72.3527 39.0659 72.1495 39.2909C72.1595 39.143 72.1595 38.9945 72.1495 38.8466C72.0336 37.3064 71.3897 35.8541 70.3272 34.7363L69.5922 33.999L68.8975 34.7564C67.8721 35.9172 67.2782 37.3978 67.2162 38.9475C67.2065 39.0618 67.2065 39.1767 67.2162 39.2909C66.9876 39.0909 66.7416 38.9118 66.4812 38.7557C65.1336 38.0361 63.581 37.8008 62.0815 38.0891L61.0747 38.281L61.3567 39.2909C61.7841 40.7753 62.7131 42.0642 63.9844 42.9367C64.907 43.453 65.9484 43.7177 67.0048 43.7042C67.4783 43.7076 67.9508 43.6602 68.4143 43.5628H68.6962V54.187C65.6724 54.1162 62.7369 53.1499 60.2592 51.4097C57.5385 49.4985 54.326 48.415 51.0068 48.2891V38.584L51.2786 38.6446C51.7454 38.7424 52.2213 38.7898 52.6982 38.786C53.7546 38.7995 54.796 38.5348 55.7186 38.0184C56.9907 37.1447 57.9225 35.8567 58.3564 34.3727L58.6282 33.3628L57.6214 33.1305C56.1093 32.821 54.5371 33.0458 53.1714 33.7667C52.911 33.9229 52.6651 34.102 52.4364 34.302C52.4463 34.154 52.4463 34.0056 52.4364 33.8576C52.3206 32.3175 51.6767 30.8652 50.6141 29.7473L49.8792 29L49.1845 29.7675C48.1591 30.9275 47.5682 32.4093 47.5132 33.9586C47.5037 34.0763 47.5037 34.1945 47.5132 34.3121C47.2857 34.1032 47.0359 33.9203 46.7682 33.7667C45.4025 33.0458 43.8302 32.821 42.3181 33.1305L41.3113 33.3628L41.5832 34.3727C42.017 35.8567 42.9489 37.1447 44.221 38.0184C45.1436 38.5348 46.185 38.7995 47.2414 38.786C47.7182 38.7898 48.1942 38.7424 48.661 38.6446L48.9429 38.5739V48.2891C45.6373 48.4216 42.4395 49.5048 39.7307 51.4097C37.0313 53.3121 33.7965 54.2993 30.4984 54.2274V44.5222L30.7803 44.5828C31.2437 44.6803 31.7163 44.7277 32.1898 44.7242C33.2471 44.7455 34.2905 44.4803 35.2102 43.9567C36.5081 43.0898 37.4655 41.7975 37.9184 40.3008L38.1903 39.2909L37.1835 39.0586C35.6681 38.7492 34.0927 38.974 32.7234 39.6949C32.4663 39.8512 32.2237 40.0304 31.9985 40.2301C32.0085 40.0822 32.0085 39.9337 31.9985 39.7858C31.8815 38.2439 31.2337 36.7909 30.1661 35.6755L29.4412 34.9382L28.7365 35.6957C27.7162 36.8579 27.1291 38.3391 27.0753 39.8868C27.0653 40.0044 27.0653 40.1226 27.0753 40.2402C26.8459 40.0337 26.5963 39.851 26.3302 39.6949C24.9646 38.9739 23.3923 38.7491 21.8802 39.0586L20.8734 39.2909L21.1352 40.3008C21.5829 41.7945 22.5329 43.0864 23.8233 43.9567C24.7435 44.4789 25.7866 44.744 26.8437 44.7242C27.3172 44.7277 27.7897 44.6803 28.2532 44.5828L28.5351 44.5323V54.1163C25.9243 53.8393 23.4247 52.9087 21.266 51.4097C18.2627 49.3046 14.6699 48.2118 11.0068 48.2891C10.7398 48.2891 10.4837 48.3955 10.2949 48.5849C10.1061 48.7743 10 49.0312 10 49.299C10 49.5669 10.1061 49.8238 10.2949 50.0132C10.4837 50.2026 10.7398 50.309 11.0068 50.309C14.3059 50.2414 17.5404 51.232 20.2391 53.1367C22.8918 54.9903 26.0109 56.0577 29.2399 56.2169V56.2169H29.6527C29.9144 56.2169 30.1762 56.2169 30.448 56.2169C34.1113 56.2956 37.7045 55.2027 40.7073 53.0963C43.4197 51.1708 46.6779 50.1722 50 50.2484C53.2988 50.1829 56.5326 51.1734 59.2323 53.0761C62.2319 55.181 65.8215 56.274 69.4815 56.1967C73.1479 56.2755 76.7444 55.1826 79.7508 53.0761C82.452 51.1687 85.6906 50.1779 88.9932 50.2484C89.2602 50.2484 89.5163 50.142 89.7051 49.9526C89.8939 49.7632 90 49.5063 90 49.2385C90 48.9706 89.8939 48.7137 89.7051 48.5243C89.5163 48.335 89.2602 48.2286 88.9932 48.2286V48.2689ZM73.8913 40.422C74.4255 40.1169 75.0284 39.9536 75.6431 39.9474C75.3573 40.5001 74.9229 40.9615 74.389 41.2792C73.8552 41.5969 73.2433 41.7583 72.6227 41.745C72.92 41.2144 73.3372 40.7613 73.8409 40.422H73.8913ZM64.9509 41.3107C64.4368 40.9775 64.0117 40.5234 63.7126 39.9877C64.3272 39.994 64.9302 40.1573 65.4644 40.4624C65.9791 40.798 66.407 41.2514 66.7128 41.7854C66.0956 41.7744 65.4905 41.6114 64.9509 41.3107V41.3107ZM54.1883 35.4735C54.7182 35.1657 55.3177 34.9988 55.93 34.9887C55.6401 35.5337 55.2132 35.9933 54.6917 36.3218C54.1557 36.6224 53.5539 36.7855 52.9398 36.7965C53.2398 36.2581 53.6689 35.8034 54.1883 35.4735V35.4735ZM45.2983 36.3218C44.7767 35.9933 44.3498 35.5337 44.0599 34.9887C44.6722 34.9988 45.2717 35.1657 45.8017 35.4735C46.321 35.8034 46.7501 36.2581 47.0501 36.7965C46.4361 36.7855 45.8343 36.6224 45.2983 36.3218V36.3218ZM33.7 41.3713C34.2342 41.0662 34.8371 40.9029 35.4518 40.8967C35.1633 41.4471 34.7282 41.9066 34.195 42.2239C33.6618 42.5413 33.0513 42.7041 32.4314 42.6943C32.7385 42.1654 33.1752 41.7239 33.7 41.4117V41.3713ZM24.8301 42.26C24.3107 41.9301 23.8816 41.4754 23.5817 40.9371C24.1964 40.9433 24.7993 41.1066 25.3335 41.4117C25.8529 41.7417 26.282 42.1964 26.5819 42.7347C25.9679 42.7237 25.3661 42.5607 24.8301 42.26V42.26ZM29.4916 38.0992C29.8073 38.6293 29.9872 39.2295 30.0151 39.8464C30.0087 40.4603 29.8532 41.0635 29.562 41.6036C29.2419 41.0792 29.0616 40.481 29.0385 39.8666C29.0368 39.2496 29.1891 38.642 29.4815 38.0992H29.4916ZM50 35.6654C49.6815 35.1402 49.5014 34.5425 49.4765 33.9283C49.5044 33.3052 49.6842 32.6984 50 32.161C50.3201 32.6891 50.5003 33.2905 50.5235 33.9081C50.4944 34.5279 50.3146 35.1312 50 35.6654V35.6654ZM69.6526 40.6139C69.3369 40.0875 69.157 39.4905 69.1291 38.8769C69.1374 38.2587 69.2964 37.6519 69.5922 37.1095C69.912 37.6391 70.0986 38.2387 70.1359 38.8567C70.1295 39.4706 69.974 40.0738 69.6829 40.6139H69.6526Z" fill="url(#paint0_linear_924_3277)"/>
<path d="M29.6726 56.1765H29.5115C29.4283 56.1919 29.343 56.1919 29.2598 56.1765H29.6726Z" fill="url(#paint1_linear_924_3277)"/>
<path d="M28.4035 63.8617C25.8928 63.9152 23.3892 63.5744 20.9834 62.8518C18.7528 62.1493 16.4246 61.8084 14.0869 61.8419C13.8199 61.8419 13.5638 61.7355 13.375 61.5461C13.1862 61.3567 13.0801 61.0998 13.0801 60.832C13.0801 60.5641 13.1862 60.3073 13.375 60.1179C13.5638 59.9285 13.8199 59.8221 14.0869 59.8221C16.5977 59.7674 19.1015 60.1082 21.507 60.832C23.7423 61.5078 26.0693 61.8281 28.4035 61.7813C30.7376 61.8273 33.0646 61.507 35.3001 60.832C37.7023 60.1089 40.2026 59.7681 42.7101 59.8221C42.9771 59.8221 43.2332 59.9285 43.422 60.1179C43.6108 60.3073 43.7169 60.5641 43.7169 60.832C43.7169 61.0998 43.6108 61.3567 43.422 61.5461C43.2332 61.7355 42.9771 61.8419 42.7101 61.8419C40.3756 61.8083 38.0508 62.1492 35.8236 62.8518C33.4179 63.5744 30.9142 63.9152 28.4035 63.8617V63.8617Z" fill="url(#paint2_linear_924_3277)"/>
<path d="M69.8645 63.8617C67.3537 63.9152 64.8501 63.5744 62.4444 62.8518C60.2137 62.1493 57.8856 61.8084 55.5478 61.8419C55.2808 61.8419 55.0247 61.7355 54.8359 61.5461C54.6471 61.3567 54.541 61.0998 54.541 60.832C54.541 60.5641 54.6471 60.3073 54.8359 60.1179C55.0247 59.9285 55.2808 59.8221 55.5478 59.8221C58.0586 59.7674 60.5624 60.1082 62.9679 60.832C65.203 61.5086 67.5302 61.8289 69.8645 61.7813C72.1953 61.8284 74.5191 61.508 76.7509 60.832C79.1564 60.1082 81.6602 59.7674 84.171 59.8221C84.438 59.8221 84.6941 59.9285 84.8829 60.1179C85.0717 60.3073 85.1778 60.5641 85.1778 60.832C85.1778 61.0998 85.0717 61.3567 84.8829 61.5461C84.6941 61.7355 84.438 61.8419 84.171 61.8419C81.8333 61.8093 79.5053 62.1502 77.2745 62.8518C74.872 63.5737 72.3718 63.9145 69.8645 63.8617Z" fill="url(#paint3_linear_924_3277)"/>
<path d="M48.1478 71.7896C46.2287 71.8335 44.3227 71.4615 42.5601 70.6989C41.1186 70.0742 39.559 69.7709 37.9892 69.8102C37.7222 69.8102 37.4661 69.7038 37.2773 69.5144C37.0885 69.325 36.9824 69.0681 36.9824 68.8003C36.9824 68.5324 37.0885 68.2756 37.2773 68.0862C37.4661 67.8968 37.7222 67.7904 37.9892 67.7904C39.9077 67.7536 41.8122 68.1254 43.5769 68.8811C45.0167 69.5124 46.577 69.8192 48.1478 69.7799C49.7184 69.8169 51.2782 69.5102 52.7186 68.8811C54.4828 68.1233 56.3877 67.7514 58.3064 67.7904C58.5734 67.7904 58.8295 67.8968 59.0183 68.0862C59.2071 68.2756 59.3131 68.5324 59.3131 68.8003C59.3131 69.0681 59.2071 69.325 59.0183 69.5144C58.8295 69.7038 58.5734 69.8102 58.3064 69.8102C56.7363 69.7683 55.1762 70.0717 53.7355 70.6989C51.9722 71.4594 50.0667 71.8313 48.1478 71.7896V71.7896Z" fill="url(#paint4_linear_924_3277)"/>
<defs>
<linearGradient id="paint0_linear_924_3277" x1="10" y1="42.6104" x2="90" y2="42.6104" gradientUnits="userSpaceOnUse">
<stop stop-color="#41C6EE"/>
<stop offset="1" stop-color="#6CC7B4"/>
</linearGradient>
<linearGradient id="paint1_linear_924_3277" x1="29.2598" y1="56.1823" x2="29.6726" y2="56.1823" gradientUnits="userSpaceOnUse">
<stop stop-color="#41C6EE"/>
<stop offset="1" stop-color="#6CC7B4"/>
</linearGradient>
<linearGradient id="paint2_linear_924_3277" x1="13.0801" y1="61.8418" x2="43.7169" y2="61.8418" gradientUnits="userSpaceOnUse">
<stop stop-color="#41C6EE"/>
<stop offset="1" stop-color="#6CC7B4"/>
</linearGradient>
<linearGradient id="paint3_linear_924_3277" x1="54.541" y1="61.8418" x2="85.1778" y2="61.8418" gradientUnits="userSpaceOnUse">
<stop stop-color="#41C6EE"/>
<stop offset="1" stop-color="#6CC7B4"/>
</linearGradient>
<linearGradient id="paint4_linear_924_3277" x1="36.9824" y1="69.7903" x2="59.3131" y2="69.7903" gradientUnits="userSpaceOnUse">
<stop stop-color="#41C6EE"/>
<stop offset="1" stop-color="#6CC7B4"/>
</linearGradient>
</defs>
</svg>
