<svg width="100" height="100" viewBox="0 0 100 100" fill="none" xmlns="http://www.w3.org/2000/svg">
<path d="M71.2852 52.635L72.8541 53.633L72.7898 50.9869L72.6235 51.2515C72.2817 51.8054 71.8254 52.2797 71.2852 52.6426V52.635Z" fill="url(#paint0_linear_924_3336)"/>
<path d="M27.769 49.2254C27.779 51.3692 27.413 53.498 26.6878 55.5154H26.6197C24.2606 55.3226 22.1775 57.2013 21.996 59.6735C21.9377 60.4713 21.6295 61.2305 21.1151 61.8432C20.622 62.4423 19.9367 62.8523 19.1756 63.0037C18.7149 63.0947 18.2464 63.1402 17.7768 63.1398C14.6313 63.1473 11.8261 61.1212 10 57.9573C11.1282 57.4085 12.0366 56.4929 12.5765 55.3605C13.1163 54.2281 13.2556 52.9459 12.9716 51.724L11.0057 43.4382C10.9792 43.321 10.9452 43.2038 10.9111 43.0904C10.5967 42.1419 10.5573 41.1237 10.7975 40.1538C11.0377 39.1838 11.5477 38.3016 12.2684 37.6094C13.7437 36.1672 15.7139 35.3425 17.7768 35.3035C23.289 35.3035 27.769 41.5368 27.769 49.2254Z" fill="url(#paint1_linear_924_3336)"/>
<path d="M72.4104 53.9996C72.4016 55.4561 72.6472 56.9029 73.1363 58.2749H73.1816C73.5746 58.2535 73.9679 58.3099 74.339 58.441C74.71 58.5721 75.0515 58.7752 75.3438 59.0386C75.6361 59.3021 75.8735 59.6207 76.0422 59.9762C76.211 60.3316 76.3078 60.7169 76.3271 61.1099C76.3613 61.6562 76.5678 62.1776 76.9169 62.5992C77.2595 62.9978 77.7299 63.265 78.2477 63.3553C78.5602 63.4174 78.878 63.4491 79.1966 63.4498C81.3365 63.4498 83.2419 62.07 84.4895 59.9192C83.7247 59.5437 83.1091 58.9209 82.7426 58.1517C82.3762 57.3826 82.2804 56.5122 82.4707 55.6818L83.8052 50.0495C83.8242 49.9701 83.8468 49.8907 83.8695 49.8151C84.0843 49.1703 84.1116 48.4777 83.9483 47.818C83.785 47.1582 83.4378 46.5583 82.947 46.088C81.9448 45.108 80.6058 44.5481 79.2042 44.5231C75.45 44.5382 72.4104 48.7718 72.4104 53.9996Z" fill="url(#paint2_linear_924_3336)"/>
<path d="M84.4793 59.9532C83.2393 62.1041 81.33 63.48 79.1864 63.48C79.0184 63.4807 78.8506 63.4719 78.6836 63.4535C80.6155 63.257 82.3206 61.9415 83.4623 59.9532C82.6965 59.5753 82.0812 58.9492 81.7167 58.177C81.3522 57.4049 81.2599 56.532 81.4548 55.7007L82.7932 50.0684C82.8106 49.9892 82.832 49.911 82.8574 49.834C83.0708 49.189 83.0974 48.4968 82.9342 47.8373C82.771 47.1779 82.4246 46.578 81.935 46.1069C81.0547 45.2561 79.9214 44.7148 78.7063 44.5646C78.8695 44.5463 79.0336 44.5375 79.1978 44.5382C80.5997 44.5654 81.9383 45.1265 82.9406 46.1069C83.431 46.5775 83.7779 47.1773 83.9412 47.837C84.1045 48.4967 84.0774 49.1891 83.8631 49.834C83.8404 49.9096 83.8177 49.989 83.7988 50.0684L82.4642 55.7007C82.2699 56.5329 82.3633 57.4064 82.7293 58.1787C83.0952 58.951 83.7121 59.5765 84.4793 59.9532V59.9532Z" fill="#3F93AE"/>
<path d="M29.9731 46.0162L27.6631 48.3372L26.6348 44.0997L26.9864 44.4021C27.8542 45.1467 28.8713 45.697 29.9693 46.0162H29.9731Z" fill="url(#paint3_linear_924_3336)"/>
<path d="M27.769 49.2254C27.7789 51.3692 27.413 53.498 26.6877 55.5154H26.6197C24.2606 55.3227 22.1774 57.2013 21.996 59.6735C21.9377 60.4713 21.6294 61.2305 21.1151 61.8432C20.622 62.4423 19.9367 62.8523 19.1756 63.0037C18.7149 63.0947 18.2464 63.1403 17.7768 63.1398C15.3571 63.1398 13.1379 61.9415 11.4102 59.9457C12.8502 61.2616 14.7222 62.0051 16.6728 62.036C17.1424 62.0365 17.6109 61.9909 18.0717 61.8999C18.8327 61.7486 19.518 61.3385 20.0111 60.7395C20.5228 60.1258 20.8283 59.3667 20.8845 58.5697C21.0659 56.0824 23.1528 54.2038 25.5082 54.4117H25.5762C26.3015 52.3943 26.6674 50.2654 26.6575 48.1217C26.6575 43.7973 25.2435 39.9341 23.0205 37.3788C25.8787 39.832 27.769 44.2207 27.769 49.2254Z" fill="#3F93AE"/>
<path d="M28.9336 50.9605C30.7067 50.677 33.0923 49.989 34.2908 48.0612C36.0034 45.3018 33.6481 42.599 34.7936 39.8736C36.5062 35.8025 45.5042 32.9297 50.8008 36.8949C57.2279 41.7296 54.4114 53.8144 49.9804 55.9237C47.5041 57.0993 45.232 54.8237 34.0375 52.0794C31.8863 51.5653 30.1018 51.1911 28.9336 50.9605Z" fill="#E5E5E5"/>
<path d="M69.5108 54.3096C68.6791 54.1773 67.56 53.856 66.9967 52.9488C66.1914 51.6523 67.2991 50.3822 66.7585 49.1045C65.957 47.1918 61.7303 45.8423 59.2426 47.7135C56.2181 49.9815 57.5489 55.6515 59.6207 56.6495C60.7851 57.2014 61.8512 56.1316 67.1063 54.8426C68.1271 54.5969 68.9778 54.4193 69.5108 54.3096Z" fill="#E5E5E5"/>
<path d="M72.4824 46.175C72.4917 46.0382 72.5327 45.9055 72.6023 45.7873C72.6718 45.6692 72.768 45.569 72.8832 45.4946C73.4389 45.0296 74.093 44.6932 74.6563 44.2396C75.1714 43.7431 75.7772 43.3504 76.4408 43.0829C77.7678 42.6709 79.2082 43.1018 80.5012 43.4609C82.1093 43.9061 83.6394 44.5958 85.0379 45.5059C85.7941 45.9897 85.6353 47.2523 85.7336 48.0234C85.9377 49.5883 85.9907 51.5199 85.5597 53.0584C85.4311 53.5158 85.3895 53.4364 84.9737 53.3571C84.6637 53.289 84.3536 53.2285 84.0436 53.1643C82.2705 52.7863 80.4974 52.4498 78.7243 52.0945L77.0872 51.7657C76.8929 51.7169 76.7106 51.6291 76.5513 51.5076C76.3921 51.3861 76.2592 51.2333 76.161 51.0588L74.161 48.5186C73.7641 48.0121 73.2877 47.566 72.9021 47.0482C72.6781 46.8056 72.5319 46.5014 72.4824 46.175V46.175Z" fill="#3F93AE"/>
<path d="M80.6378 49.7849C80.7405 49.6967 80.862 49.6331 80.9931 49.5991C81.1241 49.565 81.2612 49.5613 81.3939 49.5884C82.116 49.6526 82.8154 49.8756 83.5376 49.9664C84.2524 49.9814 84.9579 50.1315 85.6169 50.4086C86.8418 51.055 87.5564 52.3818 88.2218 53.5423C89.0399 54.9924 89.6315 56.5591 89.976 58.188C90.1688 59.0649 89.1631 59.8436 88.6906 60.456C87.7265 61.7072 86.3957 63.102 85.0044 63.892C84.5886 64.1264 84.6264 64.0432 84.3806 63.6879L83.8589 62.8979C82.8507 61.3859 81.8489 59.8739 80.8533 58.3618L79.9422 56.9821C79.8434 56.8124 79.7793 56.6248 79.7533 56.4302C79.7273 56.2356 79.7401 56.0378 79.7909 55.8481L80.169 52.6426C80.2446 52 80.2219 51.3499 80.3164 50.711C80.3274 50.3769 80.4394 50.054 80.6378 49.7849V49.7849Z" fill="#3F93AE"/>
<defs>
<linearGradient id="paint0_linear_924_3336" x1="71.2852" y1="52.31" x2="72.8541" y2="52.31" gradientUnits="userSpaceOnUse">
<stop stop-color="#41C6EE"/>
<stop offset="1" stop-color="#6CC7B4"/>
</linearGradient>
<linearGradient id="paint1_linear_924_3336" x1="10" y1="49.2217" x2="27.7692" y2="49.2217" gradientUnits="userSpaceOnUse">
<stop stop-color="#41C6EE"/>
<stop offset="1" stop-color="#6CC7B4"/>
</linearGradient>
<linearGradient id="paint2_linear_924_3336" x1="72.4102" y1="53.9864" x2="84.4895" y2="53.9864" gradientUnits="userSpaceOnUse">
<stop stop-color="#41C6EE"/>
<stop offset="1" stop-color="#6CC7B4"/>
</linearGradient>
<linearGradient id="paint3_linear_924_3336" x1="26.6348" y1="46.2184" x2="29.9731" y2="46.2184" gradientUnits="userSpaceOnUse">
<stop stop-color="#41C6EE"/>
<stop offset="1" stop-color="#6CC7B4"/>
</linearGradient>
</defs>
</svg>
