<svg width="100" height="100" viewBox="0 0 100 100" fill="none" xmlns="http://www.w3.org/2000/svg">
<path d="M12.9247 61.9996C10.9953 59.1543 9.97555 55.79 10.0004 52.3522C10.0004 43.5272 16.3973 36.3732 24.2823 36.3732C25.6436 36.3734 26.9963 36.5893 28.2901 37.0129C32.2065 28.0965 40.4832 22 50.0001 22C53.6634 22.0466 57.2641 22.9562 60.51 24.6552C63.7558 26.3541 66.5554 28.7944 68.6814 31.778C69.5922 31.6312 70.5133 31.557 71.4359 31.5561C81.6839 31.5561 89.9997 40.851 89.9997 52.3261C90.0157 55.6699 89.2842 58.9749 87.8588 61.9996" stroke="url(#paint0_linear_924_3297)" stroke-width="8" stroke-miterlimit="10" stroke-linecap="round"/>
<path d="M40.5619 53.266C39.4343 53.2933 38.3188 53.0279 37.3243 52.4958C36.4333 51.9791 35.719 51.2056 35.2747 50.2765C34.8012 49.2075 34.5566 48.0514 34.5566 46.8823C34.5566 45.7132 34.8012 44.557 35.2747 43.488C35.7264 42.5673 36.4393 41.8 37.3243 41.2818C38.3188 40.7496 39.4343 40.4843 40.5619 40.5116C41.2372 40.5092 41.9095 40.6015 42.5592 40.7857C43.1596 40.9611 43.725 41.2394 44.2302 41.6082C44.3436 41.6664 44.4424 41.7495 44.5192 41.8512C44.596 41.9529 44.649 42.0706 44.6741 42.1956C44.7003 42.2995 44.7046 42.4078 44.6866 42.5134C44.6686 42.6191 44.6288 42.7198 44.5697 42.8092C44.462 42.989 44.2889 43.12 44.0866 43.1747C43.9629 43.1976 43.8357 43.1931 43.7139 43.1615C43.5921 43.1299 43.4787 43.072 43.3817 42.992C42.9837 42.7068 42.5431 42.4865 42.0762 42.3392C41.5962 42.2033 41.0999 42.133 40.601 42.1303C40.0242 42.1013 39.4483 42.2037 38.9168 42.4299C38.3853 42.656 37.9122 43 37.5332 43.4358C36.7631 44.4382 36.3827 45.686 36.4627 46.9475C36.3795 48.2135 36.76 49.4664 37.5332 50.4723C37.9185 50.8963 38.3944 51.2279 38.9255 51.4426C39.4566 51.6574 40.0293 51.7496 40.601 51.7125C41.1336 51.6959 41.6611 51.6036 42.1676 51.4384C42.6392 51.2903 43.0811 51.0606 43.4731 50.7595C43.5715 50.687 43.6833 50.6347 43.8021 50.6055C43.9208 50.5764 44.0441 50.5711 44.165 50.5898C44.2611 50.6145 44.3511 50.6584 44.4297 50.719C44.5082 50.7796 44.5736 50.8556 44.6219 50.9423C44.7302 51.1177 44.7676 51.3278 44.7263 51.5297C44.7082 51.6437 44.6663 51.7526 44.6033 51.8493C44.5403 51.946 44.4577 52.0284 44.3608 52.0911C43.8441 52.4845 43.2602 52.7809 42.6376 52.9658C41.9659 53.1749 41.2653 53.2762 40.5619 53.266V53.266Z" fill="url(#paint1_linear_924_3297)"/>
<path d="M47.833 53.24C47.706 53.2578 47.5765 53.2456 47.455 53.2044C47.3336 53.1633 47.2234 53.0943 47.1333 53.0029C47.0433 52.9116 46.9758 52.8005 46.9364 52.6784C46.8969 52.5564 46.8865 52.4268 46.9061 52.3V41.4777C46.8865 41.3509 46.8969 41.2213 46.9364 41.0993C46.9758 40.9772 47.0433 40.8661 47.1333 40.7748C47.2234 40.6834 47.3336 40.6144 47.455 40.5733C47.5765 40.5321 47.706 40.5199 47.833 40.5377C47.959 40.5222 48.0869 40.536 48.2067 40.5782C48.3265 40.6203 48.4349 40.6896 48.5234 40.7807C48.6119 40.8717 48.6782 40.982 48.7169 41.103C48.7557 41.2239 48.7659 41.3521 48.7468 41.4777V46.0338H55.718V41.4777C55.6989 41.3521 55.7092 41.2239 55.7479 41.103C55.7867 40.982 55.8529 40.8717 55.9414 40.7807C56.03 40.6896 56.1384 40.6203 56.2581 40.5782C56.3779 40.536 56.5058 40.5222 56.6319 40.5377C57.2324 40.5377 57.5326 40.851 57.5326 41.4777V52.3C57.5326 52.9267 57.2324 53.24 56.6319 53.24C56.5058 53.2555 56.3779 53.2417 56.2581 53.1995C56.1384 53.1574 56.03 53.0881 55.9414 52.997C55.8529 52.906 55.7867 52.7957 55.7479 52.6748C55.7092 52.5538 55.6989 52.4256 55.718 52.3V47.5742H48.6946V52.3C48.7122 52.4208 48.7028 52.5441 48.6669 52.6607C48.631 52.7774 48.5696 52.8847 48.4871 52.9747C48.4046 53.0647 48.3031 53.1352 48.1899 53.1811C48.0768 53.2269 47.9549 53.2471 47.833 53.24V53.24Z" fill="url(#paint2_linear_924_3297)"/>
<path d="M63.6286 53.1747C63.1325 53.1747 62.8845 52.9528 62.8845 52.4959V51.7387H60.2735C60.1737 51.7446 60.0737 51.7303 59.9795 51.6966C59.8852 51.663 59.7988 51.6107 59.7253 51.5429C59.6638 51.4836 59.6148 51.4127 59.5811 51.3342C59.5475 51.2557 59.5299 51.1713 59.5294 51.0859C59.527 50.9457 59.5583 50.8069 59.6208 50.6812C59.6904 50.5681 59.7818 50.4245 59.895 50.2504L62.7017 46.1382C62.7909 46.0239 62.8915 45.9189 63.002 45.8249C63.1703 45.6969 63.3782 45.6322 63.5894 45.6421C63.6927 45.6284 63.7977 45.6392 63.8961 45.6735C63.9945 45.7077 64.0834 45.7646 64.1558 45.8395C64.2282 45.9145 64.282 46.0053 64.3128 46.1048C64.3437 46.2043 64.3508 46.3096 64.3336 46.4124V50.5638H64.8427C64.9944 50.5616 65.1421 50.6124 65.2605 50.7074C65.3221 50.7658 65.3704 50.8369 65.402 50.9158C65.4335 50.9946 65.4476 51.0794 65.4432 51.1643C65.4526 51.2554 65.441 51.3475 65.4094 51.4335C65.3777 51.5195 65.3267 51.5971 65.2605 51.6604C65.1421 51.7553 64.9944 51.8061 64.8427 51.804H64.3597V52.5611C64.3597 52.9528 64.0986 53.1747 63.6286 53.1747ZM62.8845 50.5638V47.7048L60.9785 50.4985L62.8845 50.5638Z" fill="url(#paint3_linear_924_3297)"/>
<path d="M28.3431 71.9082L22.586 78.0962L16.8419 71.9082C16.6992 71.764 16.6191 71.5694 16.6191 71.3665C16.6191 71.1636 16.6992 70.9689 16.8419 70.8247V70.8247C16.9861 70.682 17.1808 70.602 17.3837 70.602C17.5865 70.602 17.7812 70.682 17.9254 70.8247L21.8418 74.9761V61.5167C21.8418 61.3124 21.923 61.1165 22.0674 60.9721C22.2119 60.8276 22.4078 60.7465 22.6121 60.7465C22.8164 60.7465 23.0123 60.8276 23.1567 60.9721C23.3012 61.1165 23.3823 61.3124 23.3823 61.5167V75.0153L27.2987 70.8639C27.3681 70.792 27.4513 70.7349 27.5432 70.6958C27.6352 70.6568 27.7341 70.6367 27.834 70.6367C27.9339 70.6367 28.0327 70.6568 28.1247 70.6958C28.2167 70.7349 28.2998 70.792 28.3692 70.8639V70.8639C28.4969 71.0094 28.5651 71.1976 28.5603 71.3912C28.5554 71.5847 28.4779 71.7693 28.3431 71.9082V71.9082Z" fill="url(#paint4_linear_924_3297)"/>
<path d="M47.0501 71.9082L41.3061 78.0962L35.5489 71.9082C35.4062 71.764 35.3262 71.5693 35.3262 71.3665C35.3262 71.1636 35.4062 70.9689 35.5489 70.8247C35.6931 70.682 35.8878 70.602 36.0907 70.602C36.2936 70.602 36.4883 70.682 36.6325 70.8247L40.5489 74.9761V61.5167C40.5471 61.415 40.5658 61.3141 40.6039 61.2198C40.642 61.1256 40.6987 61.04 40.7705 60.9681C40.8424 60.8962 40.928 60.8396 41.0223 60.8015C41.1165 60.7634 41.2175 60.7447 41.3191 60.7465C41.5234 60.7465 41.7193 60.8276 41.8637 60.9721C42.0082 61.1165 42.0893 61.3124 42.0893 61.5167V75.0153L46.0058 70.8639C46.15 70.7212 46.3446 70.6411 46.5475 70.6411C46.7504 70.6411 46.9451 70.7212 47.0893 70.8639V70.8639C47.2182 71.0096 47.2861 71.1994 47.2788 71.3939C47.2715 71.5884 47.1896 71.7725 47.0501 71.9082V71.9082Z" fill="url(#paint5_linear_924_3297)"/>
<path d="M65.7572 71.9082L60 78.0962L54.2559 71.9082C54.1132 71.764 54.0332 71.5693 54.0332 71.3665C54.0332 71.1636 54.1132 70.9689 54.2559 70.8247V70.8247C54.4002 70.682 54.5948 70.602 54.7977 70.602C55.0006 70.602 55.1953 70.682 55.3395 70.8247L59.2559 74.9892V61.5167C59.2541 61.415 59.2729 61.3141 59.3109 61.2198C59.349 61.1256 59.4057 61.04 59.4776 60.9681C59.5494 60.8962 59.6351 60.8396 59.7293 60.8015C59.8236 60.7634 59.9245 60.7447 60.0261 60.7465C60.2304 60.7465 60.4263 60.8276 60.5708 60.9721C60.7152 61.1165 60.7964 61.3124 60.7964 61.5167V74.9892L64.7128 70.8639C64.857 70.7212 65.0517 70.6411 65.2546 70.6411C65.4574 70.6411 65.6521 70.7212 65.7963 70.8639V70.8639C65.9223 71.011 65.9882 71.2002 65.981 71.3937C65.9737 71.5873 65.8938 71.771 65.7572 71.9082V71.9082Z" fill="url(#paint6_linear_924_3297)"/>
<path d="M84.4642 71.9082L78.7201 78.0962L72.963 71.9082C72.8203 71.764 72.7402 71.5693 72.7402 71.3665C72.7402 71.1636 72.8203 70.9689 72.963 70.8247V70.8247C73.1072 70.682 73.3019 70.602 73.5048 70.602C73.7076 70.602 73.9023 70.682 74.0465 70.8247L77.9629 74.9761V61.5167C77.9629 61.4155 77.9829 61.3154 78.0216 61.2219C78.0603 61.1285 78.117 61.0436 78.1885 60.9721C78.2601 60.9005 78.345 60.8438 78.4384 60.8051C78.5319 60.7664 78.632 60.7465 78.7332 60.7465C78.8348 60.7447 78.9358 60.7634 79.03 60.8015C79.1242 60.8396 79.2099 60.8962 79.2817 60.9681C79.3536 61.04 79.4103 61.1256 79.4484 61.2198C79.4864 61.3141 79.5052 61.415 79.5034 61.5167V75.0153L83.4198 70.8639C83.564 70.7212 83.7587 70.6411 83.9616 70.6411C84.1645 70.6411 84.3591 70.7212 84.5034 70.8639V70.8639C84.6293 71.011 84.6953 71.2002 84.688 71.3937C84.6807 71.5873 84.6008 71.771 84.4642 71.9082V71.9082Z" fill="url(#paint7_linear_924_3297)"/>
<defs>
<linearGradient id="paint0_linear_924_3297" x1="10" y1="41.9998" x2="90" y2="41.9998" gradientUnits="userSpaceOnUse">
<stop stop-color="#41C6EE"/>
<stop offset="1" stop-color="#6CC7B4"/>
</linearGradient>
<linearGradient id="paint1_linear_924_3297" x1="34.5566" y1="46.8888" x2="44.7427" y2="46.8888" gradientUnits="userSpaceOnUse">
<stop stop-color="#41C6EE"/>
<stop offset="1" stop-color="#6CC7B4"/>
</linearGradient>
<linearGradient id="paint2_linear_924_3297" x1="46.8965" y1="46.8889" x2="57.5326" y2="46.8889" gradientUnits="userSpaceOnUse">
<stop stop-color="#41C6EE"/>
<stop offset="1" stop-color="#6CC7B4"/>
</linearGradient>
<linearGradient id="paint3_linear_924_3297" x1="59.5293" y1="49.4055" x2="65.4464" y2="49.4055" gradientUnits="userSpaceOnUse">
<stop stop-color="#41C6EE"/>
<stop offset="1" stop-color="#6CC7B4"/>
</linearGradient>
<linearGradient id="paint4_linear_924_3297" x1="16.6191" y1="69.4213" x2="28.5605" y2="69.4213" gradientUnits="userSpaceOnUse">
<stop stop-color="#41C6EE"/>
<stop offset="1" stop-color="#6CC7B4"/>
</linearGradient>
<linearGradient id="paint5_linear_924_3297" x1="35.3262" y1="69.4213" x2="47.2793" y2="69.4213" gradientUnits="userSpaceOnUse">
<stop stop-color="#41C6EE"/>
<stop offset="1" stop-color="#6CC7B4"/>
</linearGradient>
<linearGradient id="paint6_linear_924_3297" x1="54.0332" y1="69.4213" x2="65.9815" y2="69.4213" gradientUnits="userSpaceOnUse">
<stop stop-color="#41C6EE"/>
<stop offset="1" stop-color="#6CC7B4"/>
</linearGradient>
<linearGradient id="paint7_linear_924_3297" x1="72.7402" y1="69.4213" x2="84.6885" y2="69.4213" gradientUnits="userSpaceOnUse">
<stop stop-color="#41C6EE"/>
<stop offset="1" stop-color="#6CC7B4"/>
</linearGradient>
</defs>
</svg>
