<svg width="99" height="99" viewBox="0 0 99 99" fill="none" xmlns="http://www.w3.org/2000/svg">
<path d="M49.5034 0C39.6941 0 30.1547 2.87893 22.0553 8.3669C13.9558 13.7649 7.56625 21.502 3.78651 30.5887C0.00676933 39.5853 -0.983163 49.4817 0.996702 59.1081C2.88657 68.7345 7.56625 77.5513 14.4958 84.4787C21.4253 91.4061 30.2447 96.0844 39.7841 98.0637C49.4134 99.953 59.3127 98.9633 68.4021 95.2747C77.4915 91.4961 85.1409 85.1984 90.6306 77.1014C96.1202 69.0044 99 59.378 99 49.6616C99 43.184 97.7401 36.7064 95.2203 30.6786C92.7004 24.6509 89.1007 19.1629 84.511 14.5746C79.9213 9.89633 74.4317 6.29767 68.4921 3.7786C62.4625 1.25953 55.9829 0 49.5034 0ZM49.5034 96.1744C39.6941 96.1744 30.0647 93.0255 22.1453 87.2677C14.1358 81.4198 8.19621 73.2329 5.22641 63.8763C8.2862 64.4161 11.166 65.8556 13.4159 67.9248C16.8356 71.1636 21.3353 72.963 26.015 72.963C30.6947 72.963 35.1944 71.1636 38.6141 67.9248C41.4939 65.1359 45.3637 63.6064 49.4134 63.6064C53.4631 63.6064 57.3329 65.1359 60.2127 67.9248C63.6324 71.1636 68.1321 72.963 72.8118 72.963C77.4915 72.963 81.9912 71.1636 85.4109 67.9248C87.6608 65.7656 90.5406 64.4161 93.6004 63.8763C90.5406 73.2329 84.691 81.3299 76.6815 87.0877C68.7621 92.8456 59.2227 95.9944 49.4134 96.0844V96.1744H49.5034ZM49.5034 44.8934C47.4335 43.0041 42.9338 37.9659 42.9338 32.298C42.9338 26.6301 47.4335 21.682 49.5034 19.7027C51.5732 21.592 56.0729 26.6301 56.0729 32.298C56.0729 37.9659 51.4833 42.8241 49.5034 44.8034V44.8934ZM83.701 65.7656C80.8212 68.5546 76.9515 70.084 72.9018 70.084C68.8521 70.084 64.9823 68.5546 62.1025 65.7656C59.0427 62.8867 55.083 61.1773 50.9433 60.8175V47.5024C52.8332 45.793 58.9527 39.7653 58.9527 32.298C58.9527 23.6612 50.7633 16.9137 50.4033 16.6438L49.5034 15.9241L48.6034 16.6438C48.2435 16.9137 40.054 23.6612 40.054 32.298C40.054 39.7653 46.1736 45.883 48.0635 47.5024V60.9074C43.9238 61.2673 39.964 62.9767 36.9042 65.8556C34.0244 68.6446 30.1547 70.174 26.105 70.174C22.0553 70.174 18.1855 68.6446 15.3057 65.8556C12.3359 63.0666 8.46619 61.3573 4.41647 60.9974C3.51653 57.3088 3.06656 53.4402 3.06656 49.6616C2.97657 43.4539 4.05649 37.3362 6.30634 31.5783C8.55618 25.8204 11.976 20.6024 16.2957 16.104C20.6154 11.5157 25.745 8.00703 31.5046 5.6679C37.2642 3.2388 43.3838 2.06923 49.5934 2.06923C55.803 2.06923 61.9225 3.32877 67.6821 5.6679C73.4417 8.097 78.5714 11.6057 82.8911 16.0141C87.2108 20.4224 90.6306 25.7305 92.8804 31.4883C95.1303 37.2462 96.3002 43.4539 96.1202 49.5716C96.1202 53.3502 95.6702 57.2188 94.6803 60.9074C90.6306 61.1773 86.7608 62.8867 83.701 65.6757V65.7656Z" fill="white"/>
<path d="M49.5034 0C39.6941 0 30.1547 2.87893 22.0553 8.3669C13.9558 13.7649 7.56625 21.502 3.78651 30.5887C0.00676933 39.5853 -0.983163 49.4817 0.996702 59.1081C2.88657 68.7345 7.56625 77.5513 14.4958 84.4787C21.4253 91.4061 30.2447 96.0844 39.7841 98.0637C49.4134 99.953 59.3127 98.9633 68.4021 95.2747C77.4915 91.4961 85.1409 85.1984 90.6306 77.1014C96.1202 69.0044 99 59.378 99 49.6616C99 43.184 97.7401 36.7064 95.2203 30.6786C92.7004 24.6509 89.1007 19.1629 84.511 14.5746C79.9213 9.89633 74.4317 6.29767 68.4921 3.7786C62.4625 1.25953 55.9829 0 49.5034 0ZM49.5034 96.1744C39.6941 96.1744 30.0647 93.0255 22.1453 87.2677C14.1358 81.4198 8.19621 73.2329 5.22641 63.8763C8.2862 64.4161 11.166 65.8556 13.4159 67.9248C16.8356 71.1636 21.3353 72.963 26.015 72.963C30.6947 72.963 35.1944 71.1636 38.6141 67.9248C41.4939 65.1359 45.3637 63.6064 49.4134 63.6064C53.4631 63.6064 57.3329 65.1359 60.2127 67.9248C63.6324 71.1636 68.1321 72.963 72.8118 72.963C77.4915 72.963 81.9912 71.1636 85.4109 67.9248C87.6608 65.7656 90.5406 64.4161 93.6004 63.8763C90.5406 73.2329 84.691 81.3299 76.6815 87.0877C68.7621 92.8456 59.2227 95.9944 49.4134 96.0844V96.1744H49.5034ZM49.5034 44.8934C47.4335 43.0041 42.9338 37.9659 42.9338 32.298C42.9338 26.6301 47.4335 21.682 49.5034 19.7027C51.5732 21.592 56.0729 26.6301 56.0729 32.298C56.0729 37.9659 51.4833 42.8241 49.5034 44.8034V44.8934ZM83.701 65.7656C80.8212 68.5546 76.9515 70.084 72.9018 70.084C68.8521 70.084 64.9823 68.5546 62.1025 65.7656C59.0427 62.8867 55.083 61.1773 50.9433 60.8175V47.5024C52.8332 45.793 58.9527 39.7653 58.9527 32.298C58.9527 23.6612 50.7633 16.9137 50.4033 16.6438L49.5034 15.9241L48.6034 16.6438C48.2435 16.9137 40.054 23.6612 40.054 32.298C40.054 39.7653 46.1736 45.883 48.0635 47.5024V60.9074C43.9238 61.2673 39.964 62.9767 36.9042 65.8556C34.0244 68.6446 30.1547 70.174 26.105 70.174C22.0553 70.174 18.1855 68.6446 15.3057 65.8556C12.3359 63.0666 8.46619 61.3573 4.41647 60.9974C3.51653 57.3088 3.06656 53.4402 3.06656 49.6616C2.97657 43.4539 4.05649 37.3362 6.30634 31.5783C8.55618 25.8204 11.976 20.6024 16.2957 16.104C20.6154 11.5157 25.745 8.00703 31.5046 5.6679C37.2642 3.2388 43.3838 2.06923 49.5934 2.06923C55.803 2.06923 61.9225 3.32877 67.6821 5.6679C73.4417 8.097 78.5714 11.6057 82.8911 16.0141C87.2108 20.4224 90.6306 25.7305 92.8804 31.4883C95.1303 37.2462 96.3002 43.4539 96.1202 49.5716C96.1202 53.3502 95.6702 57.2188 94.6803 60.9074C90.6306 61.1773 86.7608 62.8867 83.701 65.6757V65.7656Z" fill="white"/>
<path d="M63.9131 56.8514C63.1932 56.8514 62.5632 56.8514 61.8433 56.8514L60.6733 56.7614L60.5834 55.5918C60.5834 55.142 59.5934 44.8858 65.533 38.948C71.4726 33.0102 81.7319 33.9998 82.1819 33.9998L83.3518 34.0898L83.4418 35.2594C83.4418 35.7092 84.4317 45.9654 78.4921 51.9032C74.0824 56.2216 67.3329 56.8514 63.9131 56.8514ZM63.3732 53.8825C66.073 53.8825 72.5525 53.6126 76.4223 49.834C80.292 45.9654 80.652 39.4878 80.472 36.7888C77.7722 36.7888 71.2926 37.0587 67.4229 40.8373C63.6431 44.7059 63.3732 51.1835 63.3732 53.8825Z" fill="white"/>
<path d="M37.3635 56.9416C33.9437 56.9416 27.1042 56.3118 22.6045 51.9035C16.5749 45.8757 17.5649 35.5295 17.6548 35.0797L17.7448 33.9101L18.9148 33.8202C19.3647 33.8202 29.714 32.8305 35.7436 38.7683C41.7732 44.7061 40.7833 55.1423 40.6933 55.5921V56.7617H39.5233C38.8034 56.8516 38.0834 56.9416 37.3635 56.9416ZM24.6744 49.8342C28.6341 53.7928 35.2036 54.0627 37.9035 53.8827C37.9035 51.1837 37.6335 44.5262 33.8537 40.6576C29.984 36.6991 23.3245 36.4292 20.6246 36.6091C20.6246 39.3081 20.8946 45.9657 24.8544 49.8342H24.6744V49.8342Z" fill="white"/>
</svg>
