<svg width="99" height="100" viewBox="0 0 99 100" fill="none" xmlns="http://www.w3.org/2000/svg">
<path d="M49.5034 0C39.6941 0 30.1547 2.8798 22.0553 8.36943C13.9558 13.7691 7.56625 21.5085 3.78651 30.5979C0.00676933 39.5973 -0.983163 49.4966 0.996702 59.126C2.88657 68.7553 7.56625 77.5747 14.4958 84.5042C21.4253 91.4338 30.2447 96.1134 39.784 98.0933C49.4134 99.9832 59.3127 98.9932 68.4021 95.3035C77.4915 91.5238 85.1409 85.2242 90.6306 77.1247C96.1202 69.0253 99 59.3959 99 49.6766C99 43.197 97.7401 36.7175 95.2203 30.6879C92.7004 24.6583 89.1007 19.1687 84.511 14.579C79.9213 9.89932 74.4317 6.29957 68.4921 3.77974C62.4625 1.25991 55.9829 0 49.5034 0ZM49.5034 96.2034C39.6941 96.2034 30.0647 93.0536 22.1453 87.294C14.1358 81.4444 8.19621 73.255 5.22641 63.8956C8.2862 64.4356 11.166 65.8755 13.4159 67.9454C16.8356 71.1851 21.3353 72.985 26.015 72.985C30.6947 72.985 35.1944 71.1851 38.6141 67.9454C41.4939 65.1555 45.3637 63.6257 49.4134 63.6257C53.4631 63.6257 57.3329 65.1555 60.2127 67.9454C63.6324 71.1851 68.1321 72.985 72.8118 72.985C77.4915 72.985 81.9912 71.1851 85.4109 67.9454C87.6608 65.7855 90.5406 64.4356 93.6004 63.8956C90.5406 73.255 84.691 81.3544 76.6815 87.1141C68.7621 92.8737 59.2227 96.0234 49.4134 96.1134V96.2034H49.5034ZM49.5034 44.9069C47.4335 43.0171 42.9338 37.9774 42.9338 32.3078C42.9338 26.6382 47.4335 21.6885 49.5034 19.7087C51.5732 21.5985 56.0729 26.6382 56.0729 32.3078C56.0729 37.9774 51.4832 42.8371 49.5034 44.8169V44.9069ZM83.701 65.7855C80.8212 68.5753 76.9515 70.1052 72.9018 70.1052C68.8521 70.1052 64.9823 68.5753 62.1025 65.7855C59.0427 62.9057 55.083 61.1958 50.9433 60.8358V47.5168C52.8332 45.8069 58.9527 39.7773 58.9527 32.3078C58.9527 23.6684 50.7633 16.9188 50.4033 16.6489L49.5034 15.9289L48.6034 16.6489C48.2435 16.9188 40.054 23.6684 40.054 32.3078C40.054 39.7773 46.1736 45.8969 48.0635 47.5168V60.9258C43.9238 61.2858 39.964 62.9957 36.9042 65.8755C34.0244 68.6653 30.1547 70.1952 26.105 70.1952C22.0553 70.1952 18.1855 68.6653 15.3057 65.8755C12.3359 63.0857 8.46619 61.3758 4.41647 61.0158C3.51653 57.3261 3.06656 53.4563 3.06656 49.6766C2.97657 43.467 4.05649 37.3474 6.30634 31.5878C8.55618 25.8282 11.976 20.6086 16.2957 16.1089C20.6154 11.5192 25.745 8.00945 31.5046 5.66961C37.2642 3.23978 43.3838 2.06986 49.5934 2.06986C55.803 2.06986 61.9225 3.32977 67.6821 5.66961C73.4417 8.09945 78.5714 11.6092 82.8911 16.0189C87.2108 20.4286 90.6306 25.7382 92.8804 31.4978C95.1303 37.2575 96.3002 43.467 96.1202 49.5866C96.1202 53.3664 95.6702 57.2361 94.6803 60.9258C90.6306 61.1958 86.7608 62.9057 83.701 65.6955V65.7855Z" fill="white"/>
<path d="M49.5034 0C39.6941 0 30.1547 2.8798 22.0553 8.36943C13.9558 13.7691 7.56625 21.5085 3.78651 30.5979C0.00676933 39.5973 -0.983163 49.4966 0.996702 59.126C2.88657 68.7553 7.56625 77.5747 14.4958 84.5042C21.4253 91.4338 30.2447 96.1134 39.784 98.0933C49.4134 99.9832 59.3127 98.9932 68.4021 95.3035C77.4915 91.5238 85.1409 85.2242 90.6306 77.1247C96.1202 69.0253 99 59.3959 99 49.6766C99 43.197 97.7401 36.7175 95.2203 30.6879C92.7004 24.6583 89.1007 19.1687 84.511 14.579C79.9213 9.89932 74.4317 6.29957 68.4921 3.77974C62.4625 1.25991 55.9829 0 49.5034 0ZM49.5034 96.2034C39.6941 96.2034 30.0647 93.0536 22.1453 87.294C14.1358 81.4444 8.19621 73.255 5.22641 63.8956C8.2862 64.4356 11.166 65.8755 13.4159 67.9454C16.8356 71.1851 21.3353 72.985 26.015 72.985C30.6947 72.985 35.1944 71.1851 38.6141 67.9454C41.4939 65.1555 45.3637 63.6257 49.4134 63.6257C53.4631 63.6257 57.3329 65.1555 60.2127 67.9454C63.6324 71.1851 68.1321 72.985 72.8118 72.985C77.4915 72.985 81.9912 71.1851 85.4109 67.9454C87.6608 65.7855 90.5406 64.4356 93.6004 63.8956C90.5406 73.255 84.691 81.3544 76.6815 87.1141C68.7621 92.8737 59.2227 96.0234 49.4134 96.1134V96.2034H49.5034ZM49.5034 44.9069C47.4335 43.0171 42.9338 37.9774 42.9338 32.3078C42.9338 26.6382 47.4335 21.6885 49.5034 19.7087C51.5732 21.5985 56.0729 26.6382 56.0729 32.3078C56.0729 37.9774 51.4832 42.8371 49.5034 44.8169V44.9069ZM83.701 65.7855C80.8212 68.5753 76.9515 70.1052 72.9018 70.1052C68.8521 70.1052 64.9823 68.5753 62.1025 65.7855C59.0427 62.9057 55.083 61.1958 50.9433 60.8358V47.5168C52.8332 45.8069 58.9527 39.7773 58.9527 32.3078C58.9527 23.6684 50.7633 16.9188 50.4033 16.6489L49.5034 15.9289L48.6034 16.6489C48.2435 16.9188 40.054 23.6684 40.054 32.3078C40.054 39.7773 46.1736 45.8969 48.0635 47.5168V60.9258C43.9238 61.2858 39.964 62.9957 36.9042 65.8755C34.0244 68.6653 30.1547 70.1952 26.105 70.1952C22.0553 70.1952 18.1855 68.6653 15.3057 65.8755C12.3359 63.0857 8.46619 61.3758 4.41647 61.0158C3.51653 57.3261 3.06656 53.4563 3.06656 49.6766C2.97657 43.467 4.05649 37.3474 6.30634 31.5878C8.55618 25.8282 11.976 20.6086 16.2957 16.1089C20.6154 11.5192 25.745 8.00945 31.5046 5.66961C37.2642 3.23978 43.3838 2.06986 49.5934 2.06986C55.803 2.06986 61.9225 3.32977 67.6821 5.66961C73.4417 8.09945 78.5714 11.6092 82.8911 16.0189C87.2108 20.4286 90.6306 25.7382 92.8804 31.4978C95.1303 37.2575 96.3002 43.467 96.1202 49.5866C96.1202 53.3664 95.6702 57.2361 94.6803 60.9258C90.6306 61.1958 86.7608 62.9057 83.701 65.6955V65.7855Z" fill="url(#paint0_linear_1234_1970)"/>
<path d="M63.9131 56.8686C63.1932 56.8686 62.5632 56.8686 61.8433 56.8686L60.6733 56.7786L60.5834 55.6086C60.5834 55.1587 59.5934 44.8994 65.533 38.9598C71.4726 33.0202 81.7319 34.0101 82.1819 34.0101L83.3518 34.1001L83.4418 35.27C83.4418 35.72 84.4317 45.9793 78.4921 51.9189C74.0824 56.2386 67.3329 56.8686 63.9131 56.8686ZM63.3732 53.8988C66.073 53.8988 72.5525 53.6288 76.4223 49.849C80.292 45.9793 80.652 39.4997 80.472 36.7999C77.7722 36.7999 71.2926 37.0699 67.4229 40.8496C63.6431 44.7194 63.3732 51.1989 63.3732 53.8988Z" fill="url(#paint1_linear_1234_1970)"/>
<path d="M37.364 56.9589C33.9442 56.9589 27.1047 56.3289 22.605 51.9192C16.5754 45.8896 17.5653 35.5403 17.6553 35.0903L17.7453 33.9204L18.9153 33.8304C19.3652 33.8304 29.7145 32.8405 35.7441 38.7801C41.7737 44.7197 40.7838 55.159 40.6938 55.6089V56.7789H39.5238C38.8039 56.8689 38.0839 56.9589 37.364 56.9589ZM24.6749 49.8493C28.6346 53.8091 35.2041 54.079 37.9039 53.8991C37.9039 51.1992 37.634 44.5397 33.8542 40.67C29.9845 36.7102 23.3249 36.4402 20.6251 36.6202C20.6251 39.3201 20.8951 45.9796 24.8548 49.8493H24.6749Z" fill="url(#paint2_linear_1234_1970)"/>
<defs>
<linearGradient id="paint0_linear_1234_1970" x1="-3.68804e-07" y1="49.515" x2="99" y2="49.515" gradientUnits="userSpaceOnUse">
<stop stop-color="#1DCDFE"/>
<stop offset="1" stop-color="#34F5C5"/>
</linearGradient>
<linearGradient id="paint1_linear_1234_1970" x1="60.5215" y1="45.4084" x2="83.5036" y2="45.4084" gradientUnits="userSpaceOnUse">
<stop stop-color="#1DCDFE"/>
<stop offset="1" stop-color="#34F5C5"/>
</linearGradient>
<linearGradient id="paint2_linear_1234_1970" x1="17.5415" y1="45.3637" x2="40.8076" y2="45.3637" gradientUnits="userSpaceOnUse">
<stop stop-color="#1DCDFE"/>
<stop offset="1" stop-color="#34F5C5"/>
</linearGradient>
</defs>
</svg>
