<svg width="32" height="32" viewBox="0 0 32 32" fill="none" xmlns="http://www.w3.org/2000/svg">
<path fill-rule="evenodd" clip-rule="evenodd" d="M28.8 0H3.2C1.43269 0 0 1.43269 0 3.2V28.8C0 30.5673 1.43269 32 3.2 32H28.8C30.5673 32 32 30.5673 32 28.8V3.2C32 1.43269 30.5673 0 28.8 0ZM6.4001 7.30266C6.4001 8.68418 7.5206 9.80658 8.9063 9.80658C10.2876 9.80658 11.411 8.68418 11.411 7.30266C11.411 5.92259 10.2876 4.8002 8.9063 4.8002C7.52206 4.8002 6.4001 5.92114 6.4001 7.30266ZM6.80088 25.6004H11.0993V11.7822H6.80088V25.6004ZM27.1999 25.6002H22.9044V18.8804C22.9044 17.2776 22.8752 15.2162 20.6707 15.2162C18.434 15.2162 18.0901 16.9617 18.0901 18.7639V25.6002H13.7946V11.782H17.9182V13.6702H17.9765C18.5506 12.5842 19.9523 11.4385 22.0432 11.4385C26.3956 11.4385 27.1999 14.3005 27.1999 18.0215V25.6002Z" fill="white"/>
</svg>
