<svg width="32" height="32" viewBox="0 0 32 32" fill="none" xmlns="http://www.w3.org/2000/svg">
<path d="M22.5625 9H9.5625C8.6875 9 8.0625 9.6875 8.0625 10.5C8.0625 11.375 8.6875 12 9.5625 12H22.5625C23.375 12 24.0625 11.375 24.0625 10.5C24.0625 9.6875 23.375 9 22.5625 9ZM16.5625 15H9.5625C8.6875 15 8.0625 15.6875 8.0625 16.5C8.0625 17.375 8.6875 18 9.5625 18H16.5625C17.375 18 18.0625 17.375 18.0625 16.5C18.0625 15.6875 17.375 15 16.5625 15ZM28 0H4C1.75 0 0 1.8125 0 4V21.9375C0 24.125 1.75 25.875 4 25.875H10V31.0625C10 31.6875 10.6875 32 11.1875 31.6875L19 25.8125H28C30.1875 25.8125 32 24 32 21.875V4C32 1.8125 30.25 0 28 0ZM29.0625 22C29.0625 22.5625 28.5625 23 28.0625 23H18.0625L13.0625 26.75V23H4.0625C3.5 23 3.0625 22.5625 3.0625 22V4C3.0625 3.5 3.5 3 4.0625 3H28.0625C28.5625 3 29.0625 3.5 29.0625 4V22Z" fill="white"/>
</svg>
